<svg xmlns="http://www.w3.org/2000/svg" xmlns:xlink="http://www.w3.org/1999/xlink" contentStyleType="text/css" data-diagram-type="STATE" height="688px" preserveAspectRatio="none" style="width:628px;height:688px;background:#FFFFFF;" version="1.1" viewBox="0 0 628 688" width="628px" zoomAndPan="magnify"><title>Diagrama de Estados(Reservas)</title><defs/><g><text fill="#000000" font-family="sans-serif" font-size="14" font-weight="bold" lengthAdjust="spacing" textLength="252.2598" x="181.0251" y="22.9951">Diagrama de Estados(Reservas)</text><ellipse cx="541.31" cy="53.2969" fill="#222222" rx="10" ry="10" style="stroke:#222222;stroke-width:1;"/><g id="InicioReserva"><rect fill="#F1F1F1" height="50" rx="12.5" ry="12.5" style="stroke:#181818;stroke-width:0.5;" width="113.9121" x="405.36" y="124.2969"/><line style="stroke:#181818;stroke-width:0.5;" x1="405.36" x2="519.2721" y1="150.5938" y2="150.5938"/><text fill="#000000" font-family="sans-serif" font-size="14" lengthAdjust="spacing" textLength="93.9121" x="415.36" y="142.292">InicioReserva</text></g><g id="SeleccionarLaboratorio"><rect fill="#F1F1F1" height="50" rx="12.5" ry="12.5" style="stroke:#181818;stroke-width:0.5;" width="181.4922" x="182.57" y="251.2969"/><line style="stroke:#181818;stroke-width:0.5;" x1="182.57" x2="364.0622" y1="277.5938" y2="277.5938"/><text fill="#000000" font-family="sans-serif" font-size="14" lengthAdjust="spacing" textLength="161.4922" x="192.57" y="269.292">SeleccionarLaboratorio</text></g><g id="SeleccionarFecha"><rect fill="#F1F1F1" height="50" rx="12.5" ry="12.5" style="stroke:#181818;stroke-width:0.5;" width="142.876" x="31.88" y="378.2969"/><line style="stroke:#181818;stroke-width:0.5;" x1="31.88" x2="174.756" y1="404.5938" y2="404.5938"/><text fill="#000000" font-family="sans-serif" font-size="14" lengthAdjust="spacing" textLength="122.876" x="41.88" y="396.292">SeleccionarFecha</text></g><g id="Error"><rect fill="#F1F1F1" height="50" rx="12.5" ry="12.5" style="stroke:#181818;stroke-width:0.5;" width="54.6787" x="245.98" y="505.2969"/><line style="stroke:#181818;stroke-width:0.5;" x1="245.98" x2="300.6587" y1="531.5938" y2="531.5938"/><text fill="#000000" font-family="sans-serif" font-size="14" lengthAdjust="spacing" textLength="34.6787" x="255.98" y="523.292">Error</text></g><g id="ConfirmarReserva"><rect fill="#F1F1F1" height="50" rx="12.5" ry="12.5" style="stroke:#181818;stroke-width:0.5;" width="146.6289" x="7" y="505.2969"/><line style="stroke:#181818;stroke-width:0.5;" x1="7" x2="153.6289" y1="531.5938" y2="531.5938"/><text fill="#000000" font-family="sans-serif" font-size="14" lengthAdjust="spacing" textLength="126.6289" x="17" y="523.292">ConfirmarReserva</text></g><g id="Finalizar"><rect fill="#F1F1F1" height="50" rx="12.5" ry="12.5" style="stroke:#181818;stroke-width:0.5;" width="78.8574" x="311.89" y="632.2969"/><line style="stroke:#181818;stroke-width:0.5;" x1="311.89" x2="390.7474" y1="658.5938" y2="658.5938"/><text fill="#000000" font-family="sans-serif" font-size="14" lengthAdjust="spacing" textLength="58.8574" x="321.89" y="650.292">Finalizar</text></g><!--link *start* to InicioReserva--><g id="link_*start*_InicioReserva"><path d="M535.12,61.6769 C523.99,74.9169 504.009,98.6725 486.639,119.3525 " fill="none" id="*start*-to-InicioReserva" style="stroke:#181818;stroke-width:1;"/><polygon fill="#181818" points="482.78,123.9469,491.6314,119.628,485.9958,120.1182,485.5056,114.4827,482.78,123.9469" style="stroke:#181818;stroke-width:1;"/></g><!--link InicioReserva to SeleccionarLaboratorio--><g id="link_InicioReserva_SeleccionarLaboratorio"><path d="M404.95,166.9869 C380.78,175.7069 353.24,188.0269 331.31,204.2969 C314.19,217.0069 302.5263,230.9414 292.0363,246.0214 " fill="none" id="InicioReserva-to-SeleccionarLaboratorio" style="stroke:#181818;stroke-width:1;"/><polygon fill="#181818" points="288.61,250.9469,297.0331,245.8428,291.4652,246.8423,290.4658,241.2744,288.61,250.9469" style="stroke:#181818;stroke-width:1;"/><text fill="#000000" font-family="sans-serif" font-size="13" lengthAdjust="spacing" textLength="103.8921" x="332.31" y="217.3638">Selecci&#243;n inicial</text></g><!--link SeleccionarLaboratorio to SeleccionarFecha--><g id="link_SeleccionarLaboratorio_SeleccionarFecha"><path d="M182.37,284.1269 C151.27,291.3469 119.52,305.1869 100.31,331.2969 C90.59,344.5169 90.4455,357.3172 93.8355,372.1772 " fill="none" id="SeleccionarLaboratorio-to-SeleccionarFecha" style="stroke:#181818;stroke-width:1;"/><polygon fill="#181818" points="95.17,378.0269,97.0681,368.3626,94.0579,373.1521,89.2685,370.142,95.17,378.0269" style="stroke:#181818;stroke-width:1;"/><text fill="#000000" font-family="sans-serif" font-size="13" lengthAdjust="spacing" textLength="145.374" x="101.31" y="344.3638">Laboratorio disponible</text></g><!--link SeleccionarLaboratorio to Error--><g id="link_SeleccionarLaboratorio_Error"><path d="M273.31,301.4569 C273.31,349.5069 273.31,450.5469 273.31,498.8369 " fill="none" id="SeleccionarLaboratorio-to-Error" style="stroke:#181818;stroke-width:1;"/><polygon fill="#181818" points="273.31,504.8369,277.31,495.8369,273.31,499.8369,269.31,495.8369,273.31,504.8369" style="stroke:#181818;stroke-width:1;"/><text fill="#000000" font-family="sans-serif" font-size="13" lengthAdjust="spacing" textLength="134.583" x="274.31" y="407.8638">Laboratorio ocupado</text></g><!--link SeleccionarFecha to ConfirmarReserva--><g id="link_SeleccionarFecha_ConfirmarReserva"><path d="M48.22,428.5069 C36.66,436.2869 25.96,446.1269 19.31,458.2969 C9.97,475.4169 18.0868,488.3613 34.3468,501.2413 " fill="none" id="SeleccionarFecha-to-ConfirmarReserva" style="stroke:#181818;stroke-width:1;"/><polygon fill="#181818" points="39.05,504.9669,34.4789,496.2431,35.1307,501.8622,29.5115,502.514,39.05,504.9669" style="stroke:#181818;stroke-width:1;"/><text fill="#000000" font-family="sans-serif" font-size="13" lengthAdjust="spacing" textLength="82.0625" x="20.31" y="471.3638">Fecha v&#225;lida</text></g><!--link SeleccionarFecha to Error--><g id="link_SeleccionarFecha_Error"><path d="M112.25,428.7269 C118.84,443.8469 129.13,462.7169 143.31,475.2969 C172.93,501.5769 211.3037,514.7434 239.7637,521.9534 " fill="none" id="SeleccionarFecha-to-Error" style="stroke:#181818;stroke-width:1;"/><polygon fill="#181818" points="245.58,523.4269,237.8379,517.3392,240.7331,522.199,235.8733,525.0942,245.58,523.4269" style="stroke:#181818;stroke-width:1;"/><text fill="#000000" font-family="sans-serif" font-size="13" lengthAdjust="spacing" textLength="102.3877" x="144.31" y="471.3638">Fecha no v&#225;lida</text></g><!--link ConfirmarReserva to Finalizar--><g id="link_ConfirmarReserva_Finalizar"><path d="M133.21,555.6969 C185.58,579.8469 259.132,613.7731 306.292,635.5331 " fill="none" id="ConfirmarReserva-to-Finalizar" style="stroke:#181818;stroke-width:1;"/><polygon fill="#181818" points="311.74,638.0469,305.2438,630.6442,307.2,635.9521,301.8921,637.9082,311.74,638.0469" style="stroke:#181818;stroke-width:1;"/><text fill="#000000" font-family="sans-serif" font-size="13" lengthAdjust="spacing" textLength="123.5444" x="233.31" y="598.3638">Reserva registrada</text></g><!--link Error to InicioReserva--><g id="link_Error_InicioReserva"><path d="M300.93,518.0569 C334.33,502.9169 389.5,472.6769 417.31,428.2969 C468.46,346.6769 467.9068,232.0457 464.7668,180.7757 " fill="none" id="Error-to-InicioReserva" style="stroke:#181818;stroke-width:1;"/><polygon fill="#181818" points="464.4,174.7869,460.9576,184.0146,464.7056,179.7775,468.9427,183.5255,464.4,174.7869" style="stroke:#181818;stroke-width:1;"/><text fill="#000000" font-family="sans-serif" font-size="13" lengthAdjust="spacing" textLength="134.3672" x="455.31" y="344.3638">Corregir informaci&#243;n</text></g><!--link *start* to Finalizar--><g id="link_*start*_Finalizar"><path d="M549.88,58.9469 C570.51,70.8469 621.31,104.5769 621.31,148.2969 C621.31,148.2969 621.31,148.2969 621.31,531.2969 C621.31,631.5069 472.2521,651.3081 397.1421,655.1781 " fill="none" id="*start*-to-Finalizar" style="stroke:#181818;stroke-width:1;"/><polygon fill="#181818" points="391.15,655.4869,400.3439,659.0185,396.1434,655.2296,399.9323,651.0291,391.15,655.4869" style="stroke:#181818;stroke-width:1;"/></g><!--SRC=[VP4z3i8m38Ntd28Z8FK27LZuaP2OW0qnkAa1IscCdCB0RJW3H-1Y92sje0N6FB_tMNxPK6bHJmaE0WNe7FNCbv2p7wpGerp03zLsjDD9CjOBHuRufQkFLpLVeqKJD0UoX8m5IXPYdJQ3nzrfYYcmweUtWvcZEK80l5joyYTsb5dy1vc9i7IIRCwdS9fIlGqnCM6t9ob0cfDINGylZvkb7BwdcZsruhXrgnulskVamD8LOgJH1G_aIu4GgcczheDvmX9z4WhSSw1MRQhsQrhk4m00]--></g></svg>