<svg xmlns="http://www.w3.org/2000/svg" xmlns:xlink="http://www.w3.org/1999/xlink" contentStyleType="text/css" data-diagram-type="CLASS" height="593px" preserveAspectRatio="none" style="width:440px;height:593px;background:#FFFFFF;" version="1.1" viewBox="0 0 440 593" width="440px" zoomAndPan="magnify"><title>Diagrama de Clases</title><defs/><g><text fill="#000000" font-family="sans-serif" font-size="14" font-weight="bold" lengthAdjust="spacing" textLength="156.2217" x="135.1485" y="22.9951">Diagrama de Clases</text><!--class Usuario--><g id="elem_Usuario"><rect codeLine="2" fill="#F1F1F1" height="129.4844" id="Usuario" rx="2.5" ry="2.5" style="stroke:#181818;stroke-width:0.5;" width="139.2236" x="7" y="52.4469"/><ellipse cx="46.3088" cy="68.4469" fill="#ADD1B2" rx="11" ry="11" style="stroke:#181818;stroke-width:1;"/><path d="M49.2775,74.0875 Q48.6994,74.3844 48.0588,74.525 Q47.4182,74.6813 46.715,74.6813 Q44.215,74.6813 42.8869,73.0406 Q41.5744,71.3844 41.5744,68.2594 Q41.5744,65.1344 42.8869,63.4781 Q44.215,61.8219 46.715,61.8219 Q47.4182,61.8219 48.0588,61.9781 Q48.715,62.1344 49.2775,62.4313 L49.2775,65.15 Q48.6525,64.5719 48.0588,64.3063 Q47.465,64.025 46.84,64.025 Q45.4963,64.025 44.8088,65.1031 Q44.1213,66.1656 44.1213,68.2594 Q44.1213,70.3531 44.8088,71.4313 Q45.4963,72.4938 46.84,72.4938 Q47.465,72.4938 48.0588,72.2281 Q48.6525,71.9469 49.2775,71.3688 L49.2775,74.0875 Z " fill="#000000"/><text fill="#000000" font-family="sans-serif" font-size="14" lengthAdjust="spacing" textLength="53.2041" x="65.7107" y="73.2936">Usuario</text><line style="stroke:#181818;stroke-width:0.5;" x1="8" x2="145.2236" y1="84.4469" y2="84.4469"/><ellipse cx="18" cy="98.0953" fill="none" rx="3" ry="3" style="stroke:#038048;stroke-width:1;"/><text fill="#000000" font-family="sans-serif" font-size="14" lengthAdjust="spacing" textLength="71.6064" x="27" y="101.442">id_usuario</text><ellipse cx="18" cy="114.3922" fill="none" rx="3" ry="3" style="stroke:#038048;stroke-width:1;"/><text fill="#000000" font-family="sans-serif" font-size="14" lengthAdjust="spacing" textLength="113.1621" x="27" y="117.7389">nombre_usuario</text><ellipse cx="18" cy="130.6891" fill="none" rx="3" ry="3" style="stroke:#038048;stroke-width:1;"/><text fill="#000000" font-family="sans-serif" font-size="14" lengthAdjust="spacing" textLength="66.7119" x="27" y="134.0357">password</text><ellipse cx="18" cy="146.9859" fill="none" rx="3" ry="3" style="stroke:#038048;stroke-width:1;"/><text fill="#000000" font-family="sans-serif" font-size="14" lengthAdjust="spacing" textLength="88.6963" x="27" y="150.3326">iniciarSesion</text><ellipse cx="18" cy="163.2828" fill="none" rx="3" ry="3" style="stroke:#038048;stroke-width:1;"/><text fill="#000000" font-family="sans-serif" font-size="14" lengthAdjust="spacing" textLength="113.2236" x="27" y="166.6295">registrarUsuario</text><line style="stroke:#181818;stroke-width:0.5;" x1="8" x2="145.2236" y1="173.9313" y2="173.9313"/></g><!--class Laboratorio--><g id="elem_Laboratorio"><rect codeLine="10" fill="#F1F1F1" height="145.7813" id="Laboratorio" rx="2.5" ry="2.5" style="stroke:#181818;stroke-width:0.5;" width="172.9727" x="197.13" y="44.2969"/><ellipse cx="239.3735" cy="60.2969" fill="#ADD1B2" rx="11" ry="11" style="stroke:#181818;stroke-width:1;"/><path d="M242.3422,65.9375 Q241.7641,66.2344 241.1235,66.375 Q240.4828,66.5313 239.7797,66.5313 Q237.2797,66.5313 235.9516,64.8906 Q234.6391,63.2344 234.6391,60.1094 Q234.6391,56.9844 235.9516,55.3281 Q237.2797,53.6719 239.7797,53.6719 Q240.4828,53.6719 241.1235,53.8281 Q241.7797,53.9844 242.3422,54.2813 L242.3422,57 Q241.7172,56.4219 241.1235,56.1563 Q240.5297,55.875 239.9047,55.875 Q238.561,55.875 237.8735,56.9531 Q237.186,58.0156 237.186,60.1094 Q237.186,62.2031 237.8735,63.2813 Q238.561,64.3438 239.9047,64.3438 Q240.5297,64.3438 241.1235,64.0781 Q241.7172,63.7969 242.3422,63.2188 L242.3422,65.9375 Z " fill="#000000"/><text fill="#000000" font-family="sans-serif" font-size="14" lengthAdjust="spacing" textLength="80.4316" x="259.4276" y="65.1436">Laboratorio</text><line style="stroke:#181818;stroke-width:0.5;" x1="198.13" x2="369.1027" y1="76.2969" y2="76.2969"/><rect fill="none" height="6" style="stroke:#C82930;stroke-width:1;" width="6" x="205.13" y="86.9453"/><text fill="#000000" font-family="sans-serif" font-size="14" lengthAdjust="spacing" textLength="96.2979" x="217.13" y="93.292">id_laboratorio</text><rect fill="none" height="6" style="stroke:#C82930;stroke-width:1;" width="6" x="205.13" y="103.2422"/><text fill="#000000" font-family="sans-serif" font-size="14" lengthAdjust="spacing" textLength="54.332" x="217.13" y="109.5889">nombre</text><rect fill="none" height="6" style="stroke:#C82930;stroke-width:1;" width="6" x="205.13" y="119.5391"/><text fill="#000000" font-family="sans-serif" font-size="14" lengthAdjust="spacing" textLength="74.3408" x="217.13" y="125.8857">materiales</text><ellipse cx="208.13" cy="138.8359" fill="none" rx="3" ry="3" style="stroke:#038048;stroke-width:1;"/><text fill="#000000" font-family="sans-serif" font-size="14" lengthAdjust="spacing" textLength="139.9385" x="217.13" y="142.1826">agregar Laboratorio</text><ellipse cx="208.13" cy="155.1328" fill="none" rx="3" ry="3" style="stroke:#038048;stroke-width:1;"/><text fill="#000000" font-family="sans-serif" font-size="14" lengthAdjust="spacing" textLength="126.0957" x="217.13" y="158.4795">editar Laboratorio</text><ellipse cx="208.13" cy="171.4297" fill="none" rx="3" ry="3" style="stroke:#038048;stroke-width:1;"/><text fill="#000000" font-family="sans-serif" font-size="14" lengthAdjust="spacing" textLength="146.9727" x="217.13" y="174.7764">obtener Laboratorios</text><line style="stroke:#181818;stroke-width:0.5;" x1="198.13" x2="369.1027" y1="182.0781" y2="182.0781"/></g><!--class Reserva--><g id="elem_Reserva"><rect codeLine="19" fill="#F1F1F1" height="162.0781" id="Reserva" rx="2.5" ry="2.5" style="stroke:#181818;stroke-width:0.5;" width="186.9316" x="44.15" y="267.0769"/><ellipse cx="104.9317" cy="283.0769" fill="#ADD1B2" rx="11" ry="11" style="stroke:#181818;stroke-width:1;"/><path d="M107.9005,288.7175 Q107.3224,289.0144 106.6817,289.155 Q106.0411,289.3113 105.338,289.3113 Q102.838,289.3113 101.5099,287.6706 Q100.1974,286.0144 100.1974,282.8894 Q100.1974,279.7644 101.5099,278.1081 Q102.838,276.4519 105.338,276.4519 Q106.0411,276.4519 106.6817,276.6081 Q107.338,276.7644 107.9005,277.0613 L107.9005,279.78 Q107.2755,279.2019 106.6817,278.9363 Q106.088,278.655 105.463,278.655 Q104.1192,278.655 103.4317,279.7331 Q102.7442,280.7956 102.7442,282.8894 Q102.7442,284.9831 103.4317,286.0613 Q104.1192,287.1238 105.463,287.1238 Q106.088,287.1238 106.6817,286.8581 Q107.2755,286.5769 107.9005,285.9988 L107.9005,288.7175 Z " fill="#000000"/><text fill="#000000" font-family="sans-serif" font-size="14" lengthAdjust="spacing" textLength="56.8682" x="125.4317" y="287.9236">Reserva</text><line style="stroke:#181818;stroke-width:0.5;" x1="45.15" x2="230.0816" y1="299.0769" y2="299.0769"/><rect fill="none" height="6" style="stroke:#C82930;stroke-width:1;" width="6" x="52.15" y="309.7253"/><text fill="#000000" font-family="sans-serif" font-size="14" lengthAdjust="spacing" textLength="72.6729" x="64.15" y="316.072">id_reserva</text><rect fill="none" height="6" style="stroke:#C82930;stroke-width:1;" width="6" x="52.15" y="326.0222"/><text fill="#000000" font-family="sans-serif" font-size="14" lengthAdjust="spacing" textLength="96.2979" x="64.15" y="332.3689">id_laboratorio</text><rect fill="none" height="6" style="stroke:#C82930;stroke-width:1;" width="6" x="52.15" y="342.3191"/><text fill="#000000" font-family="sans-serif" font-size="14" lengthAdjust="spacing" textLength="81.3203" x="64.15" y="348.6657">fecha: Date</text><rect fill="none" height="6" style="stroke:#C82930;stroke-width:1;" width="6" x="52.15" y="358.6159"/><text fill="#000000" font-family="sans-serif" font-size="14" lengthAdjust="spacing" textLength="51.8301" x="64.15" y="364.9626">usuario</text><ellipse cx="55.15" cy="377.9128" fill="none" rx="3" ry="3" style="stroke:#038048;stroke-width:1;"/><text fill="#000000" font-family="sans-serif" font-size="14" lengthAdjust="spacing" textLength="97.7197" x="64.15" y="381.2595">crear Reserva</text><ellipse cx="55.15" cy="394.2097" fill="none" rx="3" ry="3" style="stroke:#038048;stroke-width:1;"/><text fill="#000000" font-family="sans-serif" font-size="14" lengthAdjust="spacing" textLength="118.4463" x="64.15" y="397.5564">eliminar Reserva</text><ellipse cx="55.15" cy="410.5066" fill="none" rx="3" ry="3" style="stroke:#038048;stroke-width:1;"/><text fill="#000000" font-family="sans-serif" font-size="14" lengthAdjust="spacing" textLength="160.9316" x="64.15" y="413.8532">verificar Disponibilidad</text><line style="stroke:#181818;stroke-width:0.5;" x1="45.15" x2="230.0816" y1="421.155" y2="421.155"/></g><!--class Notificacion--><g id="elem_Notificacion"><rect codeLine="29" fill="#F1F1F1" height="80.5938" id="Notificacion" rx="2.5" ry="2.5" style="stroke:#181818;stroke-width:0.5;" width="152.5332" x="142.35" y="506.1569"/><ellipse cx="174.4482" cy="522.1569" fill="#ADD1B2" rx="11" ry="11" style="stroke:#181818;stroke-width:1;"/><path d="M177.417,527.7975 Q176.8389,528.0944 176.1982,528.235 Q175.5576,528.3913 174.8545,528.3913 Q172.3545,528.3913 171.0264,526.7506 Q169.7139,525.0944 169.7139,521.9694 Q169.7139,518.8444 171.0264,517.1881 Q172.3545,515.5319 174.8545,515.5319 Q175.5576,515.5319 176.1982,515.6881 Q176.8545,515.8444 177.417,516.1413 L177.417,518.86 Q176.792,518.2819 176.1982,518.0163 Q175.6045,517.735 174.9795,517.735 Q173.6357,517.735 172.9482,518.8131 Q172.2607,519.8756 172.2607,521.9694 Q172.2607,524.0631 172.9482,525.1413 Q173.6357,526.2038 174.9795,526.2038 Q175.6045,526.2038 176.1982,525.9381 Q176.792,525.6569 177.417,525.0788 L177.417,527.7975 Z " fill="#000000"/><text fill="#000000" font-family="sans-serif" font-size="14" lengthAdjust="spacing" textLength="82.5371" x="192.2479" y="527.0036">Notificacion</text><line style="stroke:#181818;stroke-width:0.5;" x1="143.35" x2="293.8832" y1="538.1569" y2="538.1569"/><rect fill="none" height="6" style="stroke:#C82930;stroke-width:1;" width="6" x="150.35" y="548.8053"/><text fill="#000000" font-family="sans-serif" font-size="14" lengthAdjust="spacing" textLength="59.5" x="162.35" y="555.152">mensaje</text><ellipse cx="153.35" cy="568.1022" fill="none" rx="3" ry="3" style="stroke:#038048;stroke-width:1;"/><text fill="#000000" font-family="sans-serif" font-size="14" lengthAdjust="spacing" textLength="126.5332" x="162.35" y="571.4489">enviarNotificacion</text><line style="stroke:#181818;stroke-width:0.5;" x1="143.35" x2="293.8832" y1="578.7506" y2="578.7506"/></g><!--link Usuario to Reserva--><g id="link_Usuario_Reserva"><path codeLine="34" d="M68.31,182.2269 C67.77,200.2269 68.91,219.6269 73.61,237.0769 C76.29,246.9969 77.5806,251.5014 82.0406,261.1414 " fill="none" id="Usuario-to-Reserva" style="stroke:#181818;stroke-width:1;"/><polygon fill="#181818" points="84.56,266.5869,84.4112,256.7391,82.4605,262.049,77.1507,260.0983,84.56,266.5869" style="stroke:#181818;stroke-width:1;"/><text fill="#000000" font-family="sans-serif" font-size="13" lengthAdjust="spacing" textLength="47.0107" x="74.61" y="233.1438">Realiza</text></g><!--link Laboratorio to Reserva--><g id="link_Laboratorio_Reserva"><path codeLine="35" d="M196.88,178.3169 C183.75,190.7769 171.61,204.8169 162.61,220.0769 C154.28,234.2069 150.0276,244.7725 146.2576,261.0025 " fill="none" id="Laboratorio-to-Reserva" style="stroke:#181818;stroke-width:1;"/><polygon fill="#181818" points="144.9,266.8469,150.8326,258.9853,146.0313,261.9765,143.0401,257.1752,144.9,266.8469" style="stroke:#181818;stroke-width:1;"/><text fill="#000000" font-family="sans-serif" font-size="13" lengthAdjust="spacing" textLength="110.1255" x="163.61" y="233.1438">Es reservado por</text></g><!--link Laboratorio to Notificacion--><g id="link_Laboratorio_Notificacion"><path codeLine="36" d="M296.72,190.5069 C306.99,264.7969 314.27,382.4869 278.61,476.1569 C274.59,486.7169 271.9305,492.0556 264.7705,501.0356 " fill="none" id="Laboratorio-to-Notificacion" style="stroke:#181818;stroke-width:1;"/><polygon fill="#181818" points="261.03,505.7269,269.7683,501.1836,264.1471,501.8174,263.5132,496.1962,261.03,505.7269" style="stroke:#181818;stroke-width:1;"/><text fill="#000000" font-family="sans-serif" font-size="13" lengthAdjust="spacing" textLength="126.9087" x="305.61" y="352.6838">Genera notificaci&#243;n</text></g><!--link Reserva to Notificacion--><g id="link_Reserva_Notificacion"><path codeLine="37" d="M169.53,429.5569 C175.78,445.0469 182.34,461.1269 188.61,476.1569 C192.65,485.8369 194.7101,490.7191 198.9101,500.4391 " fill="none" id="Reserva-to-Notificacion" style="stroke:#181818;stroke-width:1;"/><polygon fill="#181818" points="201.29,505.9469,201.392,496.0985,199.3067,501.357,194.0482,499.2718,201.29,505.9469" style="stroke:#181818;stroke-width:1;"/><text fill="#000000" font-family="sans-serif" font-size="13" lengthAdjust="spacing" textLength="84.2651" x="189.61" y="472.2238">Puede incluir</text></g><!--SRC=[TP91JiGm34NtFONLBPeBp88DHMmGGZEmHcxYAKPfCdBIGG9nAex0nN3JTjgYOTNaoVx_s-aJ9qTGCJQ2BO8bk74OAHP6Fn6UOuV20JuBW2jW-z8D85zzQ6kX5JfgqtiG2p0qU3QCigV8mMSYr71CWZ8g5r_5Q7MFTH1CORBRz7PkXXaDbldOOY9XT9gr5zO1g45PocHEbjC57Ef4dbOypbbs54bEEEUG0VmNwq3c5RTGQQHyNwx42Ad_xYoWaHotxF_0amvpOAEqudWCdcjsRD7EeHv2oXL6TpacQyb7VAD1rPzqrSkYldLwGDXihk4yrnRA7Q7Z3ooBvTxxeaNDROHnS1lW66HTF4YkKcdFNRzMr8UQyC-tBuj9z7BFOqVwux4thcCfVm40]--></g></svg>