<svg xmlns="http://www.w3.org/2000/svg" xmlns:xlink="http://www.w3.org/1999/xlink" contentStyleType="text/css" data-diagram-type="DESCRIPTION" height="381px" preserveAspectRatio="none" style="width:1030px;height:381px;background:#FFFFFF;" version="1.1" viewBox="0 0 1030 381" width="1030px" zoomAndPan="magnify"><defs/><g><!--cluster Frontend--><g id="cluster_Frontend"><path d="M8.5,6 L81.7285,6 A3.75,3.75 0 0 1 84.2285,8.5 L91.2285,28.2969 L262.5,28.2969 A2.5,2.5 0 0 1 265,30.7969 L265,372.39 A2.5,2.5 0 0 1 262.5,374.89 L8.5,374.89 A2.5,2.5 0 0 1 6,372.39 L6,8.5 A2.5,2.5 0 0 1 8.5,6 " fill="none" style="stroke:#000000;stroke-width:1.5;"/><line style="stroke:#000000;stroke-width:1.5;" x1="6" x2="91.2285" y1="28.2969" y2="28.2969"/><text fill="#000000" font-family="sans-serif" font-size="14" font-weight="bold" lengthAdjust="spacing" textLength="72.2285" x="10" y="20.9951">Frontend</text></g><!--cluster Backend--><g id="cluster_Backend"><path d="M596.5,6 L664.7109,6 A3.75,3.75 0 0 1 667.2109,8.5 L674.2109,28.2969 L723.5,28.2969 A2.5,2.5 0 0 1 726,30.7969 L726,100.8 A2.5,2.5 0 0 1 723.5,103.3 L596.5,103.3 A2.5,2.5 0 0 1 594,100.8 L594,8.5 A2.5,2.5 0 0 1 596.5,6 " fill="none" style="stroke:#000000;stroke-width:1.5;"/><line style="stroke:#000000;stroke-width:1.5;" x1="594" x2="674.2109" y1="28.2969" y2="28.2969"/><text fill="#000000" font-family="sans-serif" font-size="14" font-weight="bold" lengthAdjust="spacing" textLength="67.2109" x="598" y="20.9951">Backend</text></g><!--cluster Base de Datos--><g id="cluster_Base de Datos"><path d="M368.5,152.3 L482.4229,152.3 A3.75,3.75 0 0 1 484.9229,154.8 L491.9229,174.5969 L503.5,174.5969 A2.5,2.5 0 0 1 506,177.0969 L506,247.09 A2.5,2.5 0 0 1 503.5,249.59 L368.5,249.59 A2.5,2.5 0 0 1 366,247.09 L366,154.8 A2.5,2.5 0 0 1 368.5,152.3 " fill="none" style="stroke:#000000;stroke-width:1.5;"/><line style="stroke:#000000;stroke-width:1.5;" x1="366" x2="491.9229" y1="174.5969" y2="174.5969"/><text fill="#000000" font-family="sans-serif" font-size="14" font-weight="bold" lengthAdjust="spacing" textLength="112.9229" x="370" y="167.2951">Base de Datos</text></g><!--cluster Cliente--><g id="cluster_Cliente"><path d="M768.5,152.3 L825.0215,152.3 A3.75,3.75 0 0 1 827.5215,154.8 L834.5215,174.5969 L895.5,174.5969 A2.5,2.5 0 0 1 898,177.0969 L898,247.09 A2.5,2.5 0 0 1 895.5,249.59 L768.5,249.59 A2.5,2.5 0 0 1 766,247.09 L766,154.8 A2.5,2.5 0 0 1 768.5,152.3 " fill="none" style="stroke:#000000;stroke-width:1.5;"/><line style="stroke:#000000;stroke-width:1.5;" x1="766" x2="834.5215" y1="174.5969" y2="174.5969"/><text fill="#000000" font-family="sans-serif" font-size="14" font-weight="bold" lengthAdjust="spacing" textLength="55.5215" x="770" y="167.2951">Cliente</text></g><!--entity index--><g id="elem_index"><rect fill="#F1F1F1" height="46.2969" rx="2.5" ry="2.5" style="stroke:#181818;stroke-width:0.5;" width="114.8877" x="77.56" y="41"/><rect fill="#F1F1F1" height="10" style="stroke:#181818;stroke-width:0.5;" width="15" x="172.4477" y="46"/><rect fill="#F1F1F1" height="2" style="stroke:#181818;stroke-width:0.5;" width="4" x="170.4477" y="48"/><rect fill="#F1F1F1" height="2" style="stroke:#181818;stroke-width:0.5;" width="4" x="170.4477" y="52"/><text fill="#000000" font-family="sans-serif" font-size="14" lengthAdjust="spacing" textLength="74.8877" x="92.56" y="73.9951">index.html</text></g><!--entity css--><g id="elem_css"><rect fill="#F1F1F1" height="46.2969" rx="2.5" ry="2.5" style="stroke:#181818;stroke-width:0.5;" width="100.3066" x="66.85" y="312.59"/><rect fill="#F1F1F1" height="10" style="stroke:#181818;stroke-width:0.5;" width="15" x="147.1566" y="317.59"/><rect fill="#F1F1F1" height="2" style="stroke:#181818;stroke-width:0.5;" width="4" x="145.1566" y="319.59"/><rect fill="#F1F1F1" height="2" style="stroke:#181818;stroke-width:0.5;" width="4" x="145.1566" y="323.59"/><text fill="#000000" font-family="sans-serif" font-size="14" lengthAdjust="spacing" textLength="60.3066" x="81.85" y="345.5851">style.css</text></g><!--entity script--><g id="elem_script"><rect fill="#F1F1F1" height="46.2969" rx="2.5" ry="2.5" style="stroke:#181818;stroke-width:0.5;" width="94.6465" x="69.68" y="187.3"/><rect fill="#F1F1F1" height="10" style="stroke:#181818;stroke-width:0.5;" width="15" x="144.3265" y="192.3"/><rect fill="#F1F1F1" height="2" style="stroke:#181818;stroke-width:0.5;" width="4" x="142.3265" y="194.3"/><rect fill="#F1F1F1" height="2" style="stroke:#181818;stroke-width:0.5;" width="4" x="142.3265" y="198.3"/><text fill="#000000" font-family="sans-serif" font-size="14" lengthAdjust="spacing" textLength="54.6465" x="84.68" y="220.2951">script.js</text></g><!--entity server--><g id="elem_server"><rect fill="#F1F1F1" height="46.2969" rx="2.5" ry="2.5" style="stroke:#181818;stroke-width:0.5;" width="99.9512" x="610.02" y="41"/><rect fill="#F1F1F1" height="10" style="stroke:#181818;stroke-width:0.5;" width="15" x="689.9712" y="46"/><rect fill="#F1F1F1" height="2" style="stroke:#181818;stroke-width:0.5;" width="4" x="687.9712" y="48"/><rect fill="#F1F1F1" height="2" style="stroke:#181818;stroke-width:0.5;" width="4" x="687.9712" y="52"/><text fill="#000000" font-family="sans-serif" font-size="14" lengthAdjust="spacing" textLength="59.9512" x="625.02" y="73.9951">server.js</text></g><!--entity db--><g id="elem_db"><rect fill="#F1F1F1" height="46.2969" rx="2.5" ry="2.5" style="stroke:#181818;stroke-width:0.5;" width="107.3545" x="382.32" y="187.3"/><rect fill="#F1F1F1" height="10" style="stroke:#181818;stroke-width:0.5;" width="15" x="469.6745" y="192.3"/><rect fill="#F1F1F1" height="2" style="stroke:#181818;stroke-width:0.5;" width="4" x="467.6745" y="194.3"/><rect fill="#F1F1F1" height="2" style="stroke:#181818;stroke-width:0.5;" width="4" x="467.6745" y="198.3"/><text fill="#000000" font-family="sans-serif" font-size="14" lengthAdjust="spacing" textLength="67.3545" x="397.32" y="220.2951">MongoDB</text></g><!--entity postman--><g id="elem_postman"><rect fill="#F1F1F1" height="46.2969" rx="2.5" ry="2.5" style="stroke:#181818;stroke-width:0.5;" width="100.8809" x="781.56" y="187.3"/><rect fill="#F1F1F1" height="10" style="stroke:#181818;stroke-width:0.5;" width="15" x="862.4409" y="192.3"/><rect fill="#F1F1F1" height="2" style="stroke:#181818;stroke-width:0.5;" width="4" x="860.4409" y="194.3"/><rect fill="#F1F1F1" height="2" style="stroke:#181818;stroke-width:0.5;" width="4" x="860.4409" y="198.3"/><text fill="#000000" font-family="sans-serif" font-size="14" lengthAdjust="spacing" textLength="60.8809" x="796.56" y="220.2951">Postman</text></g><!--link index to script--><g id="link_index_script"><path d="M85.2,87.54 C72.78,95.67 61.02,106.17 54,119.3 C40.95,143.71 58.2674,165.577 79.7474,183.257 " fill="none" id="index-to-script" style="stroke:#181818;stroke-width:1;"/><polygon fill="#181818" points="84.38,187.07,79.9732,178.2621,80.5195,183.8925,74.8891,184.4388,84.38,187.07" style="stroke:#181818;stroke-width:1;"/><text fill="#000000" font-family="sans-serif" font-size="13" lengthAdjust="spacing" textLength="94.4023" x="55" y="132.3669">Interact&#250;a con</text></g><!--link script to index--><g id="link_script_index"><path d="M131.95,186.81 C140.23,172.87 149.71,154.29 154,136.3 C157.92,119.88 155.083,107.0036 149.153,93.0236 " fill="none" id="script-to-index" style="stroke:#181818;stroke-width:1;"/><polygon fill="#181818" points="146.81,87.5,146.6421,97.3474,148.7625,92.103,154.0069,94.2234,146.81,87.5" style="stroke:#181818;stroke-width:1;"/><text fill="#000000" font-family="sans-serif" font-size="13" lengthAdjust="spacing" textLength="54.3359" x="157" y="132.3669">Modifica</text></g><!--link script to css--><g id="link_script_css"><path d="M117,234.06 C117,256.31 117,284.07 117,306.27 " fill="none" id="script-to-css" style="stroke:#181818;stroke-width:1;"/><polygon fill="#181818" points="117,312.27,121,303.27,117,307.27,113,303.27,117,312.27" style="stroke:#181818;stroke-width:1;"/><text fill="#000000" font-family="sans-serif" font-size="13" lengthAdjust="spacing" textLength="85.4331" x="118" y="278.6569">Aplica estilos</text></g><!--link postman to server--><g id="link_postman_server"><path d="M857.12,186.94 C875.4,167.8 894.34,140.2 878,119.3 C857.58,93.18 774.1022,78.626 716.3122,71.286 " fill="none" id="postman-to-server" style="stroke:#181818;stroke-width:1;"/><polygon fill="#181818" points="710.36,70.53,718.7843,75.6321,715.3202,71.16,719.7923,67.6959,710.36,70.53" style="stroke:#181818;stroke-width:1;"/><text fill="#000000" font-family="sans-serif" font-size="13" lengthAdjust="spacing" textLength="137.1284" x="885" y="132.3669">Enviar solicitud HTTP</text></g><!--link server to postman--><g id="link_server_postman"><path d="M684.56,87.62 C700.23,101.8 721.08,120.38 740,136.3 C760.77,153.77 780.0607,169.1376 798.3507,183.4176 " fill="none" id="server-to-postman" style="stroke:#181818;stroke-width:1;"/><polygon fill="#181818" points="803.08,187.11,798.4477,178.4185,799.1389,184.033,793.5245,184.7242,803.08,187.11" style="stroke:#181818;stroke-width:1;"/><text fill="#000000" font-family="sans-serif" font-size="13" lengthAdjust="spacing" textLength="128.1465" x="741" y="132.3669">Responde con JSON</text></g><!--link server to db--><g id="link_server_db"><path d="M609.61,67.18 C535.45,71.36 402.49,83.72 373,119.3 C354.84,141.2 374.4643,164.405 397.9743,183.105 " fill="none" id="server-to-db" style="stroke:#181818;stroke-width:1;"/><polygon fill="#181818" points="402.67,186.84,398.1164,178.107,398.7569,183.7275,393.1364,184.368,402.67,186.84" style="stroke:#181818;stroke-width:1;"/><text fill="#000000" font-family="sans-serif" font-size="13" lengthAdjust="spacing" textLength="155.8477" x="374" y="132.3669">Consulta/Modifica datos</text></g><!--link db to server--><g id="link_db_server"><path d="M471.12,186.82 C513.14,159.75 577.996,117.9693 619.956,90.9393 " fill="none" id="db-to-server" style="stroke:#181818;stroke-width:1;"/><polygon fill="#181818" points="625,87.69,615.2678,89.2012,620.7966,90.3977,619.6002,95.9266,625,87.69" style="stroke:#181818;stroke-width:1;"/><text fill="#000000" font-family="sans-serif" font-size="13" lengthAdjust="spacing" textLength="132.1455" x="576" y="132.3669">Responde con datos</text></g><!--SRC=[PP2nJWCn38RtF8NLlSVU0Ocs840gLD0DCQI9Mm9f7CLf0I5UZ9KNmvVBKN5CiVr_jdydQlEYjmYZYqGXOx0Z-5003ovOV6kUyiu_WcOeQLld_EwnCSobB6yfckHYRfwxOfUfJwLYFtmgmN4sOpfW-iLBDi0PmIBCTIQkJGiAMvfFIujT_y5dtg5uh-2IEEzqA63iufOk5y3OqciOdrQFC84hQKpQvEyl3OQ2gaBFTLqJM91r6sVqK9SF4FKiUj40EJjFhEhMux9oeN3duU1q0YR1NTvRk5ojbghAFMtNGiueyDvdVT8l1jl-XHBntzGxv4ZYi_LViS78tj20lRw_lVa1]--></g></svg>