<svg xmlns="http://www.w3.org/2000/svg" xmlns:xlink="http://www.w3.org/1999/xlink" contentStyleType="text/css" data-diagram-type="ACTIVITY" height="594px" preserveAspectRatio="none" style="width:1018px;height:594px;background:#FFFFFF;" version="1.1" viewBox="0 0 1018 594" width="1018px" zoomAndPan="magnify"><title>Diagrama de Flujo</title><defs/><g><text fill="#000000" font-family="sans-serif" font-size="14" font-weight="bold" lengthAdjust="spacing" textLength="144.2861" x="435.395" y="32.9951">Diagrama de Flujo</text><ellipse cx="654.3481" cy="57.2969" fill="#222222" rx="10" ry="10" style="stroke:#222222;stroke-width:1;"/><rect fill="#F1F1F1" height="33.9688" rx="12.5" ry="12.5" style="stroke:#181818;stroke-width:0.5;" width="177.4238" x="565.6362" y="87.2969"/><text fill="#000000" font-family="sans-serif" font-size="12" lengthAdjust="spacing" textLength="157.4238" x="575.6362" y="108.4355">Inicio de sesi&#243;n o Registro</text><polygon fill="#F1F1F1" points="591.8071,141.2656,716.8892,141.2656,728.8892,153.2656,716.8892,165.2656,591.8071,165.2656,579.8071,153.2656,591.8071,141.2656" style="stroke:#181818;stroke-width:0.5;"/><text fill="#000000" font-family="sans-serif" font-size="11" lengthAdjust="spacing" textLength="125.082" x="591.8071" y="157.0737">&#191;Credenciales v&#225;lidas?</text><text fill="#000000" font-family="sans-serif" font-size="11" lengthAdjust="spacing" textLength="10.0386" x="569.7686" y="150.6714">S&#237;</text><text fill="#000000" font-family="sans-serif" font-size="11" lengthAdjust="spacing" textLength="14.9585" x="728.8892" y="150.6714">No</text><rect fill="#F1F1F1" height="33.9688" rx="12.5" ry="12.5" style="stroke:#181818;stroke-width:0.5;" width="171.1484" x="308.2549" y="175.2656"/><text fill="#000000" font-family="sans-serif" font-size="12" lengthAdjust="spacing" textLength="151.1484" x="318.2549" y="196.4043">Mostrar Panel de Gesti&#243;n</text><polygon fill="#F1F1F1" points="37.7769,229.2344,211.0591,229.2344,223.0591,241.2344,211.0591,253.2344,37.7769,253.2344,25.7769,241.2344,37.7769,229.2344" style="stroke:#181818;stroke-width:0.5;"/><text fill="#000000" font-family="sans-serif" font-size="11" lengthAdjust="spacing" textLength="131.7637" x="128.418" y="263.4448">Gesti&#243;n de Laboratorios</text><text fill="#000000" font-family="sans-serif" font-size="11" lengthAdjust="spacing" textLength="173.2822" x="37.7769" y="245.0425">&#191;Qu&#233; operaci&#243;n desea realizar?</text><rect fill="#F1F1F1" height="33.9688" rx="12.5" ry="12.5" style="stroke:#181818;stroke-width:0.5;" width="226.8359" x="11" y="286.0391"/><text fill="#000000" font-family="sans-serif" font-size="12" lengthAdjust="spacing" textLength="206.8359" x="21" y="307.1777">Registrar o Visualizar Laboratorios</text><polygon fill="#F1F1F1" points="362.804,229.2344,476.0535,229.2344,488.0535,241.2344,476.0535,253.2344,362.804,253.2344,350.804,241.2344,362.804,229.2344" style="stroke:#181818;stroke-width:0.5;"/><text fill="#000000" font-family="sans-serif" font-size="11" lengthAdjust="spacing" textLength="113.2495" x="362.804" y="245.0425">Gesti&#243;n de Reservas</text><text fill="#000000" font-family="sans-serif" font-size="11" lengthAdjust="spacing" textLength="120.0225" x="488.0535" y="238.6401">Gesti&#243;n de Materiales</text><rect fill="#F1F1F1" height="33.9688" rx="12.5" ry="12.5" style="stroke:#181818;stroke-width:0.5;" width="127.4082" x="355.7246" y="273.2344"/><text fill="#000000" font-family="sans-serif" font-size="12" lengthAdjust="spacing" textLength="107.4082" x="365.7246" y="294.373">Registrar Reserva</text><polygon fill="#F1F1F1" points="355.9209,340.0078,482.9365,340.0078,494.9365,352.0078,482.9365,364.0078,355.9209,364.0078,343.9209,352.0078,355.9209,340.0078" style="stroke:#181818;stroke-width:0.5;"/><text fill="#000000" font-family="sans-serif" font-size="11" lengthAdjust="spacing" textLength="127.0156" x="355.9209" y="355.8159">&#191;Conflicto en la Fecha?</text><text fill="#000000" font-family="sans-serif" font-size="11" lengthAdjust="spacing" textLength="10.0386" x="333.8823" y="349.4136">S&#237;</text><text fill="#000000" font-family="sans-serif" font-size="11" lengthAdjust="spacing" textLength="14.9585" x="494.9365" y="349.4136">No</text><rect fill="#F1F1F1" height="33.9688" rx="12.5" ry="12.5" style="stroke:#181818;stroke-width:0.5;" width="127.4785" x="270.1816" y="374.0078"/><text fill="#000000" font-family="sans-serif" font-size="12" lengthAdjust="spacing" textLength="107.4785" x="280.1816" y="395.1465">Notificar Conflicto</text><rect fill="#F1F1F1" height="33.9688" rx="12.5" ry="12.5" style="stroke:#181818;stroke-width:0.5;" width="132.3535" x="438.7598" y="374.0078"/><text fill="#000000" font-family="sans-serif" font-size="12" lengthAdjust="spacing" textLength="112.3535" x="448.7598" y="395.1465">Confirmar Reserva</text><polygon fill="#F1F1F1" points="419.4287,413.9766,431.4287,425.9766,419.4287,437.9766,407.4287,425.9766,419.4287,413.9766" style="stroke:#181818;stroke-width:0.5;"/><rect fill="#F1F1F1" height="33.9688" rx="12.5" ry="12.5" style="stroke:#181818;stroke-width:0.5;" width="191.5449" x="601.1133" y="340.5234"/><text fill="#000000" font-family="sans-serif" font-size="12" lengthAdjust="spacing" textLength="171.5449" x="611.1133" y="361.6621">Registrar o Editar Materiales</text><rect fill="#F1F1F1" height="33.9688" rx="12.5" ry="12.5" style="stroke:#181818;stroke-width:0.5;" width="178.0801" x="304.7891" y="477.9766"/><text fill="#000000" font-family="sans-serif" font-size="12" lengthAdjust="spacing" textLength="158.0801" x="314.7891" y="499.1152">Volver al Panel de Gesti&#243;n</text><rect fill="#F1F1F1" height="33.9688" rx="12.5" ry="12.5" style="stroke:#181818;stroke-width:0.5;" width="204.418" x="802.6582" y="175.2656"/><text fill="#000000" font-family="sans-serif" font-size="12" lengthAdjust="spacing" textLength="184.418" x="812.6582" y="196.4043">Mostrar Error de Autenticaci&#243;n</text><polygon fill="#F1F1F1" points="654.3481,517.9453,666.3481,529.9453,654.3481,541.9453,642.3481,529.9453,654.3481,517.9453" style="stroke:#181818;stroke-width:0.5;"/><ellipse cx="654.3481" cy="572.9453" fill="none" rx="11" ry="11" style="stroke:#222222;stroke-width:1;"/><ellipse cx="654.3481" cy="572.9453" fill="#222222" rx="6" ry="6" style="stroke:#222222;stroke-width:1;"/><line style="stroke:#181818;stroke-width:1;" x1="654.3481" x2="654.3481" y1="67.2969" y2="87.2969"/><polygon fill="#181818" points="650.3481,77.2969,654.3481,87.2969,658.3481,77.2969,654.3481,81.2969" style="stroke:#181818;stroke-width:1;"/><line style="stroke:#181818;stroke-width:1;" x1="343.9209" x2="333.9209" y1="352.0078" y2="352.0078"/><line style="stroke:#181818;stroke-width:1;" x1="333.9209" x2="333.9209" y1="352.0078" y2="374.0078"/><polygon fill="#181818" points="329.9209,364.0078,333.9209,374.0078,337.9209,364.0078,333.9209,368.0078" style="stroke:#181818;stroke-width:1;"/><line style="stroke:#181818;stroke-width:1;" x1="494.9365" x2="504.9365" y1="352.0078" y2="352.0078"/><line style="stroke:#181818;stroke-width:1;" x1="504.9365" x2="504.9365" y1="352.0078" y2="374.0078"/><polygon fill="#181818" points="500.9365,364.0078,504.9365,374.0078,508.9365,364.0078,504.9365,368.0078" style="stroke:#181818;stroke-width:1;"/><line style="stroke:#181818;stroke-width:1;" x1="333.9209" x2="333.9209" y1="407.9766" y2="425.9766"/><line style="stroke:#181818;stroke-width:1;" x1="333.9209" x2="407.4287" y1="425.9766" y2="425.9766"/><polygon fill="#181818" points="397.4287,421.9766,407.4287,425.9766,397.4287,429.9766,401.4287,425.9766" style="stroke:#181818;stroke-width:1;"/><line style="stroke:#181818;stroke-width:1;" x1="504.9365" x2="504.9365" y1="407.9766" y2="425.9766"/><line style="stroke:#181818;stroke-width:1;" x1="504.9365" x2="431.4287" y1="425.9766" y2="425.9766"/><polygon fill="#181818" points="441.4287,421.9766,431.4287,425.9766,441.4287,429.9766,437.4287,425.9766" style="stroke:#181818;stroke-width:1;"/><line style="stroke:#181818;stroke-width:1;" x1="419.4287" x2="419.4287" y1="307.2031" y2="340.0078"/><polygon fill="#181818" points="415.4287,330.0078,419.4287,340.0078,423.4287,330.0078,419.4287,334.0078" style="stroke:#181818;stroke-width:1;"/><line style="stroke:#181818;stroke-width:1;" x1="124.418" x2="124.418" y1="253.2344" y2="286.0391"/><polygon fill="#181818" points="120.418,276.0391,124.418,286.0391,128.418,276.0391,124.418,280.0391" style="stroke:#181818;stroke-width:1;"/><line style="stroke:#181818;stroke-width:1;" x1="124.418" x2="124.418" y1="320.0078" y2="457.9766"/><polygon fill="#181818" points="120.418,447.9766,124.418,457.9766,128.418,447.9766,124.418,451.9766" style="stroke:#181818;stroke-width:1;"/><line style="stroke:#181818;stroke-width:1;" x1="419.4287" x2="419.4287" y1="253.2344" y2="273.2344"/><polygon fill="#181818" points="415.4287,263.2344,419.4287,273.2344,423.4287,263.2344,419.4287,267.2344" style="stroke:#181818;stroke-width:1;"/><line style="stroke:#181818;stroke-width:1;" x1="419.4287" x2="419.4287" y1="437.9766" y2="457.9766"/><polygon fill="#181818" points="415.4287,447.9766,419.4287,457.9766,423.4287,447.9766,419.4287,451.9766" style="stroke:#181818;stroke-width:1;"/><line style="stroke:#181818;stroke-width:1;" x1="223.0591" x2="350.804" y1="241.2344" y2="241.2344"/><polygon fill="#181818" points="340.804,237.2344,350.804,241.2344,340.804,245.2344,344.804,241.2344" style="stroke:#181818;stroke-width:1;"/><line style="stroke:#181818;stroke-width:1;" x1="393.8291" x2="393.8291" y1="209.2344" y2="214.2344"/><line style="stroke:#181818;stroke-width:1;" x1="393.8291" x2="124.418" y1="214.2344" y2="214.2344"/><line style="stroke:#181818;stroke-width:1;" x1="124.418" x2="124.418" y1="214.2344" y2="229.2344"/><polygon fill="#181818" points="120.418,219.2344,124.418,229.2344,128.418,219.2344,124.418,223.2344" style="stroke:#181818;stroke-width:1;"/><line style="stroke:#181818;stroke-width:1;" x1="488.0535" x2="696.8857" y1="241.2344" y2="241.2344"/><line style="stroke:#181818;stroke-width:1;" x1="696.8857" x2="696.8857" y1="241.2344" y2="340.5234"/><polygon fill="#181818" points="692.8857,330.5234,696.8857,340.5234,700.8857,330.5234,696.8857,334.5234" style="stroke:#181818;stroke-width:1;"/><line style="stroke:#181818;stroke-width:1;" x1="696.8857" x2="696.8857" y1="374.4922" y2="457.9766"/><polygon fill="#181818" points="692.8857,447.9766,696.8857,457.9766,700.8857,447.9766,696.8857,451.9766" style="stroke:#181818;stroke-width:1;"/><line style="stroke:#181818;stroke-width:1;" x1="124.418" x2="696.8857" y1="457.9766" y2="457.9766"/><line style="stroke:#181818;stroke-width:1;" x1="393.8291" x2="393.8291" y1="457.9766" y2="477.9766"/><polygon fill="#181818" points="389.8291,467.9766,393.8291,477.9766,397.8291,467.9766,393.8291,471.9766" style="stroke:#181818;stroke-width:1;"/><line style="stroke:#181818;stroke-width:1;" x1="579.8071" x2="393.8291" y1="153.2656" y2="153.2656"/><line style="stroke:#181818;stroke-width:1;" x1="393.8291" x2="393.8291" y1="153.2656" y2="175.2656"/><polygon fill="#181818" points="389.8291,165.2656,393.8291,175.2656,397.8291,165.2656,393.8291,169.2656" style="stroke:#181818;stroke-width:1;"/><line style="stroke:#181818;stroke-width:1;" x1="728.8892" x2="904.8672" y1="153.2656" y2="153.2656"/><line style="stroke:#181818;stroke-width:1;" x1="904.8672" x2="904.8672" y1="153.2656" y2="175.2656"/><polygon fill="#181818" points="900.8672,165.2656,904.8672,175.2656,908.8672,165.2656,904.8672,169.2656" style="stroke:#181818;stroke-width:1;"/><line style="stroke:#181818;stroke-width:1;" x1="393.8291" x2="393.8291" y1="511.9453" y2="529.9453"/><line style="stroke:#181818;stroke-width:1;" x1="393.8291" x2="642.3481" y1="529.9453" y2="529.9453"/><polygon fill="#181818" points="632.3481,525.9453,642.3481,529.9453,632.3481,533.9453,636.3481,529.9453" style="stroke:#181818;stroke-width:1;"/><line style="stroke:#181818;stroke-width:1;" x1="904.8672" x2="904.8672" y1="209.2344" y2="529.9453"/><line style="stroke:#181818;stroke-width:1;" x1="904.8672" x2="666.3481" y1="529.9453" y2="529.9453"/><polygon fill="#181818" points="676.3481,525.9453,666.3481,529.9453,676.3481,533.9453,672.3481,529.9453" style="stroke:#181818;stroke-width:1;"/><line style="stroke:#181818;stroke-width:1;" x1="654.3481" x2="654.3481" y1="121.2656" y2="141.2656"/><polygon fill="#181818" points="650.3481,131.2656,654.3481,141.2656,658.3481,131.2656,654.3481,135.2656" style="stroke:#181818;stroke-width:1;"/><line style="stroke:#181818;stroke-width:1;" x1="654.3481" x2="654.3481" y1="541.9453" y2="561.9453"/><polygon fill="#181818" points="650.3481,551.9453,654.3481,561.9453,658.3481,551.9453,654.3481,555.9453" style="stroke:#181818;stroke-width:1;"/><!--SRC=[RP51JWCn34NtSmelfrVeB1225Y7H2WhgtcGyhL4QLqwc2sx3aWKh3e34N8madOxQqcty_Vx_yGi7It3Bk5BS8DG4Kzk-IU43QYZ6zuuDIthsvBdxTY2me1Nxe58Lt43v-tEZL9CpZ9OyxBeFopNwgn64DJaedxklKG4mdadSGOL7T6GJy8vyICGgJlUWfxRx1DcIeibMDNb2K4BBxwW3yR2O80_uAef1bCKdcsZKnujM0alsxNxxH9aioNhAliUuHNJK7Vv7zOCgl_UrnJMMJH28eIp2bCmQpsjdp5m2DsmYPjZPWtA6SYw3CirPD-U6v6fk3fbF0iymaEQVlz1-KdEyuf4cz-vPuwNO7IcWlNIIusJ3wIQgeabttGPo8JOolJepVP3j7m00]--></g></svg>