<svg xmlns="http://www.w3.org/2000/svg" xmlns:xlink="http://www.w3.org/1999/xlink" contentStyleType="text/css" data-diagram-type="STATE" height="794px" preserveAspectRatio="none" style="width:1043px;height:794px;background:#FFFFFF;" version="1.1" viewBox="0 0 1043 794" width="1043px" zoomAndPan="magnify"><defs/><g><ellipse cx="715.81" cy="16" fill="#222222" rx="10" ry="10" style="stroke:#222222;stroke-width:1;"/><g id="Inicio"><rect fill="#F1F1F1" height="50" rx="12.5" ry="12.5" style="stroke:#181818;stroke-width:0.5;" width="57.0439" x="687.29" y="103"/><line style="stroke:#181818;stroke-width:0.5;" x1="687.29" x2="744.3339" y1="129.2969" y2="129.2969"/><text fill="#000000" font-family="sans-serif" font-size="14" lengthAdjust="spacing" textLength="37.0439" x="697.29" y="120.9951">Inicio</text></g><g id="Login"><rect fill="#F1F1F1" height="50" rx="12.5" ry="12.5" style="stroke:#181818;stroke-width:0.5;" width="58.0146" x="686.8" y="230"/><line style="stroke:#181818;stroke-width:0.5;" x1="686.8" x2="744.8146" y1="256.2969" y2="256.2969"/><text fill="#000000" font-family="sans-serif" font-size="14" lengthAdjust="spacing" textLength="38.0146" x="696.8" y="247.9951">Login</text></g><g id="Panel"><rect fill="#F1F1F1" height="50" rx="12.5" ry="12.5" style="stroke:#181818;stroke-width:0.5;" width="58.3975" x="510.61" y="357"/><line style="stroke:#181818;stroke-width:0.5;" x1="510.61" x2="569.0075" y1="383.2969" y2="383.2969"/><text fill="#000000" font-family="sans-serif" font-size="14" lengthAdjust="spacing" textLength="38.3975" x="520.61" y="374.9951">Panel</text></g><g id="ErrorLogin"><rect fill="#F1F1F1" height="50" rx="12.5" ry="12.5" style="stroke:#181818;stroke-width:0.5;" width="92.6934" x="762.46" y="357"/><line style="stroke:#181818;stroke-width:0.5;" x1="762.46" x2="855.1534" y1="383.2969" y2="383.2969"/><text fill="#000000" font-family="sans-serif" font-size="14" lengthAdjust="spacing" textLength="72.6934" x="772.46" y="374.9951">ErrorLogin</text></g><g id="Gesti&#243;nLaboratorios"><rect fill="#F1F1F1" height="50" rx="12.5" ry="12.5" style="stroke:#181818;stroke-width:0.5;" width="161.2988" x="85.16" y="484"/><line style="stroke:#181818;stroke-width:0.5;" x1="85.16" x2="246.4588" y1="510.2969" y2="510.2969"/><text fill="#000000" font-family="sans-serif" font-size="14" lengthAdjust="spacing" textLength="141.2988" x="95.16" y="501.9951">Gesti&#243;nLaboratorios</text></g><g id="Gesti&#243;nReservas"><rect fill="#F1F1F1" height="50" rx="12.5" ry="12.5" style="stroke:#181818;stroke-width:0.5;" width="137.7354" x="370.94" y="484"/><line style="stroke:#181818;stroke-width:0.5;" x1="370.94" x2="508.6754" y1="510.2969" y2="510.2969"/><text fill="#000000" font-family="sans-serif" font-size="14" lengthAdjust="spacing" textLength="117.7354" x="380.94" y="501.9951">Gesti&#243;nReservas</text></g><g id="Gesti&#243;nMateriales"><rect fill="#F1F1F1" height="50" rx="12.5" ry="12.5" style="stroke:#181818;stroke-width:0.5;" width="146.3555" x="670.63" y="484"/><line style="stroke:#181818;stroke-width:0.5;" x1="670.63" x2="816.9855" y1="510.2969" y2="510.2969"/><text fill="#000000" font-family="sans-serif" font-size="14" lengthAdjust="spacing" textLength="126.3555" x="680.63" y="501.9951">Gesti&#243;nMateriales</text></g><ellipse cx="990.81" cy="509" fill="none" rx="11" ry="11" style="stroke:#222222;stroke-width:1;"/><ellipse cx="990.81" cy="509" fill="#222222" rx="6" ry="6" style="stroke:#222222;stroke-width:1;"/><g id="CrearReserva"><rect fill="#F1F1F1" height="50" rx="12.5" ry="12.5" style="stroke:#181818;stroke-width:0.5;" width="115.3477" x="108.14" y="611"/><line style="stroke:#181818;stroke-width:0.5;" x1="108.14" x2="223.4877" y1="637.2969" y2="637.2969"/><text fill="#000000" font-family="sans-serif" font-size="14" lengthAdjust="spacing" textLength="95.3477" x="118.14" y="628.9951">CrearReserva</text></g><g id="EliminarReserva"><rect fill="#F1F1F1" height="50" rx="12.5" ry="12.5" style="stroke:#181818;stroke-width:0.5;" width="134.2285" x="372.7" y="611"/><line style="stroke:#181818;stroke-width:0.5;" x1="372.7" x2="506.9285" y1="637.2969" y2="637.2969"/><text fill="#000000" font-family="sans-serif" font-size="14" lengthAdjust="spacing" textLength="114.2285" x="382.7" y="628.9951">EliminarReserva</text></g><g id="ConfirmarReserva"><rect fill="#F1F1F1" height="50" rx="12.5" ry="12.5" style="stroke:#181818;stroke-width:0.5;" width="146.6289" x="510.5" y="738"/><line style="stroke:#181818;stroke-width:0.5;" x1="510.5" x2="657.1289" y1="764.2969" y2="764.2969"/><text fill="#000000" font-family="sans-serif" font-size="14" lengthAdjust="spacing" textLength="126.6289" x="520.5" y="755.9951">ConfirmarReserva</text></g><g id="ConflictoReserva"><rect fill="#F1F1F1" height="50" rx="12.5" ry="12.5" style="stroke:#181818;stroke-width:0.5;" width="138.542" x="37.54" y="738"/><line style="stroke:#181818;stroke-width:0.5;" x1="37.54" x2="176.082" y1="764.2969" y2="764.2969"/><text fill="#000000" font-family="sans-serif" font-size="14" lengthAdjust="spacing" textLength="118.542" x="47.54" y="755.9951">ConflictoReserva</text></g><!--link *start* to Inicio--><g id="link_*start*_Inicio"><path d="M705.51,17.82 C685.65,20.01 642.39,27.94 623.81,56 C604.54,85.1 647.644,105.3744 681.304,116.7144 " fill="none" id="*start*-to-Inicio" style="stroke:#181818;stroke-width:1;"/><polygon fill="#181818" points="686.99,118.63,679.7381,111.9659,682.2517,117.0337,677.1839,119.5473,686.99,118.63" style="stroke:#181818;stroke-width:1;"/><text fill="#000000" font-family="sans-serif" font-size="13" lengthAdjust="spacing" textLength="153.8545" x="624.81" y="69.0669">Usuario abre el sistema</text></g><!--link *start* to Inicio--><g id="link_*start*_Inicio"><path d="M725.3,19.29 C740.62,23.54 770.33,34.3 782.81,56 C795.99,78.92 773.4737,97.3539 749.7737,110.5339 " fill="none" id="*start*-to-Inicio-1" style="stroke:#181818;stroke-width:1;"/><polygon fill="#181818" points="744.53,113.45,754.3396,112.5716,748.8997,111.0199,750.4515,105.58,744.53,113.45" style="stroke:#181818;stroke-width:1;"/></g><!--link Inicio to Login--><g id="link_Inicio_Login"><path d="M715.81,153.4 C715.81,175.42 715.81,201.66 715.81,223.66 " fill="none" id="Inicio-to-Login" style="stroke:#181818;stroke-width:1;"/><polygon fill="#181818" points="715.81,229.66,719.81,220.66,715.81,224.66,711.81,220.66,715.81,229.66" style="stroke:#181818;stroke-width:1;"/><text fill="#000000" font-family="sans-serif" font-size="13" lengthAdjust="spacing" textLength="223.3613" x="716.81" y="196.0669">Solicitar inicio de sesi&#243;n o registro</text></g><!--link Login to Panel--><g id="link_Login_Panel"><path d="M686.58,258.79 C652.62,263.55 597.02,276.28 563.81,310 C551.49,322.52 546.6205,335.6875 543.7005,350.9075 " fill="none" id="Login-to-Panel" style="stroke:#181818;stroke-width:1;"/><polygon fill="#181818" points="542.57,356.8,548.1941,348.7149,543.5121,351.8896,540.3374,347.2075,542.57,356.8" style="stroke:#181818;stroke-width:1;"/><text fill="#000000" font-family="sans-serif" font-size="13" lengthAdjust="spacing" textLength="134.0244" x="564.81" y="323.0669">Credenciales v&#225;lidas</text></g><!--link Login to ErrorLogin--><g id="link_Login_ErrorLogin"><path d="M708.53,280.27 C705.63,294.78 704.65,313.05 712.81,327 C723.62,345.49 737.8712,355.684 756.6412,364.064 " fill="none" id="Login-to-ErrorLogin" style="stroke:#181818;stroke-width:1;"/><polygon fill="#181818" points="762.12,366.51,755.5325,359.1884,757.5544,364.4716,752.2712,366.4935,762.12,366.51" style="stroke:#181818;stroke-width:1;"/><text fill="#000000" font-family="sans-serif" font-size="13" lengthAdjust="spacing" textLength="145.8755" x="713.81" y="323.0669">Credenciales inv&#225;lidas</text></g><!--link ErrorLogin to Login--><g id="link_ErrorLogin_Login"><path d="M846.05,356.8 C862.13,343.27 874.98,325.97 863.81,310 C837,271.68 785.9445,261.0128 751.0345,257.7828 " fill="none" id="ErrorLogin-to-Login" style="stroke:#181818;stroke-width:1;"/><polygon fill="#181818" points="745.06,257.23,753.6532,262.0422,750.0387,257.6907,754.3902,254.0762,745.06,257.23" style="stroke:#181818;stroke-width:1;"/><text fill="#000000" font-family="sans-serif" font-size="13" lengthAdjust="spacing" textLength="63.2671" x="868.81" y="323.0669">Reintento</text></g><!--link Panel to Gesti?nLaboratorios--><g id="link_Panel_Gesti&#243;nLaboratorios"><path d="M510.3,384.18 C412.27,388.38 102.03,404.21 72.81,437 C57,454.74 69.7381,468.3484 94.0181,480.8784 " fill="none" id="Panel-to-Gesti&#243;nLaboratorios" style="stroke:#181818;stroke-width:1;"/><polygon fill="#181818" points="99.35,483.63,93.1866,475.9481,94.9068,481.337,89.5178,483.0572,99.35,483.63" style="stroke:#181818;stroke-width:1;"/><text fill="#000000" font-family="sans-serif" font-size="13" lengthAdjust="spacing" textLength="179.8926" x="73.81" y="450.0669">Selecci&#243;n de "Laboratorios"</text></g><!--link Gesti?nLaboratorios to Panel--><g id="link_Gesti&#243;nLaboratorios_Panel"><path d="M213.03,483.56 C243.26,468.62 283.64,449.97 320.81,437 C386.99,413.91 461.81,397.8534 504.36,389.5934 " fill="none" id="Gesti&#243;nLaboratorios-to-Panel" style="stroke:#181818;stroke-width:1;"/><polygon fill="#181818" points="510.25,388.45,500.6527,386.2384,505.3416,389.4028,502.1772,394.0918,510.25,388.45" style="stroke:#181818;stroke-width:1;"/><text fill="#000000" font-family="sans-serif" font-size="13" lengthAdjust="spacing" textLength="101.3657" x="321.81" y="450.0669">Finaliza gesti&#243;n</text></g><!--link Panel to Gesti?nReservas--><g id="link_Panel_Gesti&#243;nReservas"><path d="M510.49,389.49 C486.03,396.63 452.69,410.74 436.81,437 C428.45,450.83 428.237,463.2198 431.187,477.7598 " fill="none" id="Panel-to-Gesti&#243;nReservas" style="stroke:#181818;stroke-width:1;"/><polygon fill="#181818" points="432.38,483.64,434.5106,474.0244,431.3858,478.7398,426.6703,475.6151,432.38,483.64" style="stroke:#181818;stroke-width:1;"/><text fill="#000000" font-family="sans-serif" font-size="13" lengthAdjust="spacing" textLength="158.0122" x="437.81" y="450.0669">Selecci&#243;n de "Reservas"</text></g><!--link Panel to Gesti?nMateriales--><g id="link_Panel_Gesti&#243;nMateriales"><path d="M569.5,406.71 C588.26,421.18 613.32,439.61 636.81,454 C654.02,464.54 668.1737,472.1863 685.7937,480.9163 " fill="none" id="Panel-to-Gesti&#243;nMateriales" style="stroke:#181818;stroke-width:1;"/><polygon fill="#181818" points="691.17,483.58,684.8814,476.0002,686.6898,481.3602,681.3297,483.1686,691.17,483.58" style="stroke:#181818;stroke-width:1;"/><text fill="#000000" font-family="sans-serif" font-size="13" lengthAdjust="spacing" textLength="166.0166" x="637.81" y="450.0669">Selecci&#243;n de "Materiales"</text></g><!--link Gesti?nMateriales to Panel--><g id="link_Gesti&#243;nMateriales_Panel"><path d="M788.31,483.62 C807.1,470.19 821.94,453.03 808.81,437 C778.78,400.34 638.8801,388.3844 575.4001,384.7344 " fill="none" id="Gesti&#243;nMateriales-to-Panel" style="stroke:#181818;stroke-width:1;"/><polygon fill="#181818" points="569.41,384.39,578.1655,388.9,574.4018,384.677,578.6248,380.9132,569.41,384.39" style="stroke:#181818;stroke-width:1;"/><text fill="#000000" font-family="sans-serif" font-size="13" lengthAdjust="spacing" textLength="101.3657" x="814.81" y="450.0669">Finaliza gesti&#243;n</text></g><!--link Panel to *end*--><g id="link_Panel_*end*"><path d="M569.23,386.58 C656.52,397.27 908.99,428.75 924.81,437 C953.16,451.78 972.5868,478.6566 982.3668,494.1466 " fill="none" id="Panel-to-*end*" style="stroke:#181818;stroke-width:1;"/><polygon fill="#181818" points="985.57,499.22,984.1474,489.4744,982.9007,494.9922,977.3829,493.7454,985.57,499.22" style="stroke:#181818;stroke-width:1;"/><text fill="#000000" font-family="sans-serif" font-size="13" lengthAdjust="spacing" textLength="86.5566" x="948.81" y="450.0669">Cerrar sesi&#243;n</text></g><!--link Gesti?nReservas to CrearReserva--><g id="link_Gesti&#243;nReservas_CrearReserva"><path d="M370.56,520.75 C299.46,532.4 197.3,551.04 183.81,564 C171.34,575.98 167.5392,589.2908 166.2492,604.7408 " fill="none" id="Gesti&#243;nReservas-to-CrearReserva" style="stroke:#181818;stroke-width:1;"/><polygon fill="#181818" points="165.75,610.72,170.485,602.084,166.166,605.7373,162.5127,601.4184,165.75,610.72" style="stroke:#181818;stroke-width:1;"/><text fill="#000000" font-family="sans-serif" font-size="13" lengthAdjust="spacing" textLength="133.25" x="184.81" y="577.0669">Crear nueva reserva</text></g><!--link Gesti?nReservas to EliminarReserva--><g id="link_Gesti&#243;nReservas_EliminarReserva"><path d="M370.7,530.1 C354.94,538.06 340.11,549.02 330.81,564 C315.81,588.18 336.3737,603.6224 366.8237,615.2324 " fill="none" id="Gesti&#243;nReservas-to-EliminarReserva" style="stroke:#181818;stroke-width:1;"/><polygon fill="#181818" points="372.43,617.37,365.4456,610.4261,367.7581,615.5887,362.5955,617.9012,372.43,617.37" style="stroke:#181818;stroke-width:1;"/><text fill="#000000" font-family="sans-serif" font-size="13" lengthAdjust="spacing" textLength="171.1519" x="331.81" y="577.0669">Eliminar reserva existente</text></g><!--link EliminarReserva to Gesti?nReservas--><g id="link_EliminarReserva_Gesti&#243;nReservas"><path d="M486.3,610.52 C503.26,598.08 516.42,581.83 507.81,564 C502.17,552.33 497.3573,546.1204 487.1973,538.0904 " fill="none" id="EliminarReserva-to-Gesti&#243;nReservas" style="stroke:#181818;stroke-width:1;"/><polygon fill="#181818" points="482.49,534.37,487.0706,543.0888,486.4127,537.4703,492.0312,536.8124,482.49,534.37" style="stroke:#181818;stroke-width:1;"/><text fill="#000000" font-family="sans-serif" font-size="13" lengthAdjust="spacing" textLength="120.8594" x="511.81" y="577.0669">Reserva eliminada</text></g><!--link CrearReserva to ConfirmarReserva--><g id="link_CrearReserva_ConfirmarReserva"><path d="M223.75,652.18 C263.1,662.65 316.24,677.14 362.81,691 C412.25,705.71 461.7989,721.5898 504.6889,735.6598 " fill="none" id="CrearReserva-to-ConfirmarReserva" style="stroke:#181818;stroke-width:1;"/><polygon fill="#181818" points="510.39,737.53,503.0852,730.9239,505.6391,735.9715,500.5916,738.5254,510.39,737.53" style="stroke:#181818;stroke-width:1;"/><text fill="#000000" font-family="sans-serif" font-size="13" lengthAdjust="spacing" textLength="165.623" x="418.81" y="704.0669">No hay conflicto de fecha</text></g><!--link CrearReserva to ConflictoReserva--><g id="link_CrearReserva_ConflictoReserva"><path d="M107.99,642.45 C76.05,648.75 38.88,662.24 18.81,691 C6,709.35 16.817,722.5047 38.567,734.7047 " fill="none" id="CrearReserva-to-ConflictoReserva" style="stroke:#181818;stroke-width:1;"/><polygon fill="#181818" points="43.8,737.64,37.9074,729.7484,39.4392,735.1939,33.9937,736.7257,43.8,737.64" style="stroke:#181818;stroke-width:1;"/><text fill="#000000" font-family="sans-serif" font-size="13" lengthAdjust="spacing" textLength="127.1626" x="19.81" y="704.0669">Conflicto detectado</text></g><!--link ConflictoReserva to CrearReserva--><g id="link_ConflictoReserva_CrearReserva"><path d="M131.43,737.75 C139.02,729.03 146.72,718.69 151.81,708 C158.78,693.37 161.541,681.4143 163.301,667.2343 " fill="none" id="ConflictoReserva-to-CrearReserva" style="stroke:#181818;stroke-width:1;"/><polygon fill="#181818" points="164.04,661.28,158.9619,669.7188,163.4241,666.2419,166.901,670.7042,164.04,661.28" style="stroke:#181818;stroke-width:1;"/><text fill="#000000" font-family="sans-serif" font-size="13" lengthAdjust="spacing" textLength="194.9302" x="159.81" y="704.0669">Resoluci&#243;n o cambio de datos</text></g><!--link ConfirmarReserva to Gesti?nReservas--><g id="link_ConfirmarReserva_Gesti&#243;nReservas"><path d="M603.35,737.53 C632.86,697.4 681.3,616.8 640.81,564 C624.62,542.89 566.4768,529.1959 514.9668,520.5259 " fill="none" id="ConfirmarReserva-to-Gesti&#243;nReservas" style="stroke:#181818;stroke-width:1;"/><polygon fill="#181818" points="509.05,519.53,517.2612,524.9684,513.9806,520.3599,518.5891,517.0793,509.05,519.53" style="stroke:#181818;stroke-width:1;"/><text fill="#000000" font-family="sans-serif" font-size="13" lengthAdjust="spacing" textLength="123.5444" x="657.81" y="640.5669">Reserva registrada</text></g><!--SRC=[XPDDJiCm48NtFiMeIwHUe0isg22aWb0Hguh5r9csbXnR6ZiLS1lEm15wCSPn0Yuni7Cyxyky-V7cuXdcyqkuTKOR3mju2Xsod73B16GXc12fHJK8adRbzyQ9zD5RkOl8O7Am8GWKpEd3WGUclQ3iLPOdy06T_741LqmDEMtGKe3ZwTsQ1aEXMp9x7hESYOtxaXUYqjIQZ8laebSgfql16mensLhXrZD6BmM6L01PqhhtAzPdPNHMeTSKY8zO8ST8ZRh3I9pTJxZlM4bkP2PIDp5BQuU6AbMjeUpgjN5epHl2Vb2gYeM_0JKfDUbb0iZ3JHw8-78ToHVdspgtjAQL50KwtemSq4jQBncOKcTP-hJUxGot9N_luO2le2KYgnVxZTkHFc2TxZM5yGABf2CsNarabOBbv6sdXxtMs6xphZSoXQ0cDdzPcJ4yl0jiKAcV7Ve7fInFvERitNu2]--></g></svg>