<svg xmlns="http://www.w3.org/2000/svg" xmlns:xlink="http://www.w3.org/1999/xlink" contentStyleType="text/css" data-diagram-type="SEQUENCE" height="502px" preserveAspectRatio="none" style="width:891px;height:502px;background:#FFFFFF;" version="1.1" viewBox="0 0 891 502" width="891px" zoomAndPan="magnify"><defs/><g><line style="stroke:#181818;stroke-width:0.5;stroke-dasharray:5.0,5.0;" x1="32" x2="32" y1="81.2969" y2="421.7578"/><line style="stroke:#181818;stroke-width:0.5;stroke-dasharray:5.0,5.0;" x1="149.1436" x2="149.1436" y1="81.2969" y2="421.7578"/><line style="stroke:#181818;stroke-width:0.5;stroke-dasharray:5.0,5.0;" x1="308.5146" x2="308.5146" y1="81.2969" y2="421.7578"/><line style="stroke:#181818;stroke-width:0.5;stroke-dasharray:5.0,5.0;" x1="586.5205" x2="586.5205" y1="81.2969" y2="421.7578"/><line style="stroke:#181818;stroke-width:0.5;stroke-dasharray:5.0,5.0;" x1="776.6616" x2="776.6616" y1="81.2969" y2="421.7578"/><line style="stroke:#181818;stroke-width:0.5;stroke-dasharray:5.0,5.0;" x1="857.0161" x2="857.0161" y1="81.2969" y2="421.7578"/><text fill="#000000" font-family="sans-serif" font-size="14" lengthAdjust="spacing" textLength="49.1436" x="5" y="77.9951">Cliente</text><ellipse cx="32.5718" cy="13.5" fill="#E2E2F0" rx="8" ry="8" style="stroke:#181818;stroke-width:0.5;"/><path d="M32.5718,21.5 L32.5718,48.5 M19.5718,29.5 L45.5718,29.5 M32.5718,48.5 L19.5718,63.5 M32.5718,48.5 L45.5718,63.5 " fill="none" style="stroke:#181818;stroke-width:0.5;"/><text fill="#000000" font-family="sans-serif" font-size="14" lengthAdjust="spacing" textLength="49.1436" x="5" y="433.7529">Cliente</text><ellipse cx="32.5718" cy="445.5547" fill="#E2E2F0" rx="8" ry="8" style="stroke:#181818;stroke-width:0.5;"/><path d="M32.5718,453.5547 L32.5718,480.5547 M19.5718,461.5547 L45.5718,461.5547 M32.5718,480.5547 L19.5718,495.5547 M32.5718,480.5547 L45.5718,495.5547 " fill="none" style="stroke:#181818;stroke-width:0.5;"/><text fill="#000000" font-family="sans-serif" font-size="14" lengthAdjust="spacing" textLength="153.3711" x="70.1436" y="77.9951">Frontend (index.html)</text><ellipse cx="149.8291" cy="49" fill="#E2E2F0" rx="12" ry="12" style="stroke:#181818;stroke-width:0.5;"/><line style="stroke:#181818;stroke-width:0.5;" x1="137.8291" x2="161.8291" y1="63" y2="63"/><text fill="#000000" font-family="sans-serif" font-size="14" lengthAdjust="spacing" textLength="153.3711" x="70.1436" y="433.7529">Frontend (index.html)</text><ellipse cx="149.8291" cy="453.0547" fill="#E2E2F0" rx="12" ry="12" style="stroke:#181818;stroke-width:0.5;"/><line style="stroke:#181818;stroke-width:0.5;" x1="137.8291" x2="161.8291" y1="467.0547" y2="467.0547"/><text fill="#000000" font-family="sans-serif" font-size="14" lengthAdjust="spacing" textLength="133.1299" x="239.5146" y="77.9951">Frontend (script.js)</text><ellipse cx="309.0796" cy="49" fill="#E2E2F0" rx="12" ry="12" style="stroke:#181818;stroke-width:0.5;"/><line style="stroke:#181818;stroke-width:0.5;" x1="297.0796" x2="321.0796" y1="63" y2="63"/><text fill="#000000" font-family="sans-serif" font-size="14" lengthAdjust="spacing" textLength="133.1299" x="239.5146" y="433.7529">Frontend (script.js)</text><ellipse cx="309.0796" cy="453.0547" fill="#E2E2F0" rx="12" ry="12" style="stroke:#181818;stroke-width:0.5;"/><line style="stroke:#181818;stroke-width:0.5;" x1="297.0796" x2="321.0796" y1="467.0547" y2="467.0547"/><text fill="#000000" font-family="sans-serif" font-size="14" lengthAdjust="spacing" textLength="160.5625" x="503.5205" y="77.9951">Servidor API (server.js)</text><ellipse cx="586.8018" cy="49" fill="#E2E2F0" rx="12" ry="12" style="stroke:#181818;stroke-width:0.5;"/><line style="stroke:#181818;stroke-width:0.5;" x1="574.8018" x2="598.8018" y1="63" y2="63"/><text fill="#000000" font-family="sans-serif" font-size="14" lengthAdjust="spacing" textLength="160.5625" x="503.5205" y="433.7529">Servidor API (server.js)</text><ellipse cx="586.8018" cy="453.0547" fill="#E2E2F0" rx="12" ry="12" style="stroke:#181818;stroke-width:0.5;"/><line style="stroke:#181818;stroke-width:0.5;" x1="574.8018" x2="598.8018" y1="467.0547" y2="467.0547"/><text fill="#000000" font-family="sans-serif" font-size="14" lengthAdjust="spacing" textLength="67.3545" x="740.6616" y="77.9951">MongoDB</text><path d="M759.3389,29 C759.3389,19 777.3389,19 777.3389,19 C777.3389,19 795.3389,19 795.3389,29 L795.3389,55 C795.3389,65 777.3389,65 777.3389,65 C777.3389,65 759.3389,65 759.3389,55 L759.3389,29 " fill="#E2E2F0" style="stroke:#181818;stroke-width:1.5;"/><path d="M759.3389,29 C759.3389,39 777.3389,39 777.3389,39 C777.3389,39 795.3389,39 795.3389,29 " fill="none" style="stroke:#181818;stroke-width:1.5;"/><text fill="#000000" font-family="sans-serif" font-size="14" lengthAdjust="spacing" textLength="67.3545" x="740.6616" y="433.7529">MongoDB</text><path d="M759.3389,447.0547 C759.3389,437.0547 777.3389,437.0547 777.3389,437.0547 C777.3389,437.0547 795.3389,437.0547 795.3389,447.0547 L795.3389,473.0547 C795.3389,483.0547 777.3389,483.0547 777.3389,483.0547 C777.3389,483.0547 759.3389,483.0547 759.3389,473.0547 L759.3389,447.0547 " fill="#E2E2F0" style="stroke:#181818;stroke-width:1.5;"/><path d="M759.3389,447.0547 C759.3389,457.0547 777.3389,457.0547 777.3389,457.0547 C777.3389,457.0547 795.3389,457.0547 795.3389,447.0547 " fill="none" style="stroke:#181818;stroke-width:1.5;"/><text fill="#000000" font-family="sans-serif" font-size="14" lengthAdjust="spacing" textLength="60.8809" x="824.0161" y="77.9951">Postman</text><ellipse cx="857.4565" cy="13.5" fill="#E2E2F0" rx="8" ry="8" style="stroke:#181818;stroke-width:0.5;"/><path d="M857.4565,21.5 L857.4565,48.5 M844.4565,29.5 L870.4565,29.5 M857.4565,48.5 L844.4565,63.5 M857.4565,48.5 L870.4565,63.5 " fill="none" style="stroke:#181818;stroke-width:0.5;"/><text fill="#000000" font-family="sans-serif" font-size="14" lengthAdjust="spacing" textLength="60.8809" x="824.0161" y="433.7529">Postman</text><ellipse cx="857.4565" cy="445.5547" fill="#E2E2F0" rx="8" ry="8" style="stroke:#181818;stroke-width:0.5;"/><path d="M857.4565,453.5547 L857.4565,480.5547 M844.4565,461.5547 L870.4565,461.5547 M857.4565,480.5547 L844.4565,495.5547 M857.4565,480.5547 L870.4565,495.5547 " fill="none" style="stroke:#181818;stroke-width:0.5;"/><polygon fill="#181818" points="137.8291,108.4297,147.8291,112.4297,137.8291,116.4297,141.8291,112.4297" style="stroke:#181818;stroke-width:1;"/><line style="stroke:#181818;stroke-width:1;" x1="32.5718" x2="143.8291" y1="112.4297" y2="112.4297"/><text fill="#000000" font-family="sans-serif" font-size="13" lengthAdjust="spacing" textLength="92.3711" x="39.5718" y="107.3638">Cargar p&#225;gina</text><polygon fill="#181818" points="297.0796,137.5625,307.0796,141.5625,297.0796,145.5625,301.0796,141.5625" style="stroke:#181818;stroke-width:1;"/><line style="stroke:#181818;stroke-width:1;" x1="149.8291" x2="303.0796" y1="141.5625" y2="141.5625"/><text fill="#000000" font-family="sans-serif" font-size="13" lengthAdjust="spacing" textLength="91.0825" x="156.8291" y="136.4966">Cargar scripts</text><polygon fill="#181818" points="574.8018,166.6953,584.8018,170.6953,574.8018,174.6953,578.8018,170.6953" style="stroke:#181818;stroke-width:1;"/><line style="stroke:#181818;stroke-width:1;" x1="309.0796" x2="580.8018" y1="170.6953" y2="170.6953"/><text fill="#000000" font-family="sans-serif" font-size="13" lengthAdjust="spacing" textLength="253.7222" x="316.0796" y="165.6294">Enviar solicitud HTTP (GET, POST, PUT)</text><polygon fill="#181818" points="765.3389,195.8281,775.3389,199.8281,765.3389,203.8281,769.3389,199.8281" style="stroke:#181818;stroke-width:1;"/><line style="stroke:#181818;stroke-width:1;" x1="586.8018" x2="771.3389" y1="199.8281" y2="199.8281"/><text fill="#000000" font-family="sans-serif" font-size="13" lengthAdjust="spacing" textLength="166.5371" x="593.8018" y="194.7622">Consultar/Modificar datos</text><polygon fill="#181818" points="597.8018,224.9609,587.8018,228.9609,597.8018,232.9609,593.8018,228.9609" style="stroke:#181818;stroke-width:1;"/><line style="stroke:#181818;stroke-width:1;stroke-dasharray:2.0,2.0;" x1="591.8018" x2="776.3389" y1="228.9609" y2="228.9609"/><text fill="#000000" font-family="sans-serif" font-size="13" lengthAdjust="spacing" textLength="137.4902" x="603.8018" y="223.895">Responder con datos</text><polygon fill="#181818" points="320.0796,254.0938,310.0796,258.0938,320.0796,262.0938,316.0796,258.0938" style="stroke:#181818;stroke-width:1;"/><line style="stroke:#181818;stroke-width:1;stroke-dasharray:2.0,2.0;" x1="314.0796" x2="585.8018" y1="258.0938" y2="258.0938"/><text fill="#000000" font-family="sans-serif" font-size="13" lengthAdjust="spacing" textLength="133.4912" x="326.0796" y="253.0278">Responder con JSON</text><polygon fill="#181818" points="43.5718,283.2266,33.5718,287.2266,43.5718,291.2266,39.5718,287.2266" style="stroke:#181818;stroke-width:1;"/><line style="stroke:#181818;stroke-width:1;stroke-dasharray:2.0,2.0;" x1="37.5718" x2="308.0796" y1="287.2266" y2="287.2266"/><text fill="#000000" font-family="sans-serif" font-size="13" lengthAdjust="spacing" textLength="179.7402" x="49.5718" y="282.1606">Mostrar datos en la interfaz</text><polygon fill="#181818" points="597.8018,312.3594,587.8018,316.3594,597.8018,320.3594,593.8018,316.3594" style="stroke:#181818;stroke-width:1;"/><line style="stroke:#181818;stroke-width:1;" x1="591.8018" x2="856.4565" y1="316.3594" y2="316.3594"/><text fill="#000000" font-family="sans-serif" font-size="13" lengthAdjust="spacing" textLength="240.792" x="603.8018" y="311.2935">Enviar solicitud API (GET, POST, PUT)</text><polygon fill="#181818" points="765.3389,341.4922,775.3389,345.4922,765.3389,349.4922,769.3389,345.4922" style="stroke:#181818;stroke-width:1;"/><line style="stroke:#181818;stroke-width:1;" x1="586.8018" x2="771.3389" y1="345.4922" y2="345.4922"/><text fill="#000000" font-family="sans-serif" font-size="13" lengthAdjust="spacing" textLength="166.5371" x="593.8018" y="340.4263">Consultar/Modificar datos</text><polygon fill="#181818" points="597.8018,370.625,587.8018,374.625,597.8018,378.625,593.8018,374.625" style="stroke:#181818;stroke-width:1;"/><line style="stroke:#181818;stroke-width:1;stroke-dasharray:2.0,2.0;" x1="591.8018" x2="776.3389" y1="374.625" y2="374.625"/><text fill="#000000" font-family="sans-serif" font-size="13" lengthAdjust="spacing" textLength="137.4902" x="603.8018" y="369.5591">Responder con datos</text><polygon fill="#181818" points="845.4565,399.7578,855.4565,403.7578,845.4565,407.7578,849.4565,403.7578" style="stroke:#181818;stroke-width:1;"/><line style="stroke:#181818;stroke-width:1;stroke-dasharray:2.0,2.0;" x1="586.8018" x2="851.4565" y1="403.7578" y2="403.7578"/><text fill="#000000" font-family="sans-serif" font-size="13" lengthAdjust="spacing" textLength="133.4912" x="593.8018" y="398.6919">Responder con JSON</text><!--SRC=[jP11JiCm44NtFiKegrQYPSy2YIOD42dKmk40G-A6GQaTsMu5t8QpS376RYcBbYKRo_xl-_jxi0tMGJwGDa43UiW5xoYyGrOwovhfO4Acqs_pbx0Pfbdqb6SyldKqXlchtrigTVGexNRKyIityfvzVDBkw5EYmu3Fw3LajJMzBHP9BnO2KxLCMXysQ98gXSXXTWqbN46EhaS7uzTdJmP56VLA_O9z8IzOOnB1qkme0ZjGIs7RmLtJI9ZSBfiBa2iLrwTcAfA_MCGaQ_ns2EWkQzlHcbg-pNMj5undXzH7xKVB0tBGMdF0Aj7g55TgzP0QCSwPrlmvzvCAsi20G3nHjyOF8VyidYRvRxtbsThV]--></g></svg>