<svg xmlns="http://www.w3.org/2000/svg" xmlns:xlink="http://www.w3.org/1999/xlink" contentStyleType="text/css" data-diagram-type="SEQUENCE" height="464px" preserveAspectRatio="none" style="width:758px;height:464px;background:#FFFFFF;" version="1.1" viewBox="0 0 758 464" width="758px" zoomAndPan="magnify"><defs/><g><line style="stroke:#181818;stroke-width:0.5;stroke-dasharray:5.0,5.0;" x1="32" x2="32" y1="81.2969" y2="383.7578"/><line style="stroke:#181818;stroke-width:0.5;stroke-dasharray:5.0,5.0;" x1="330.1465" x2="330.1465" y1="81.2969" y2="383.7578"/><line style="stroke:#181818;stroke-width:0.5;stroke-dasharray:5.0,5.0;" x1="520.625" x2="520.625" y1="81.2969" y2="383.7578"/><text fill="#000000" font-family="sans-serif" font-size="14" lengthAdjust="spacing" textLength="49.1436" x="5" y="77.9951">Cliente</text><ellipse cx="32.5718" cy="13.5" fill="#E2E2F0" rx="8" ry="8" style="stroke:#181818;stroke-width:0.5;"/><path d="M32.5718,21.5 L32.5718,48.5 M19.5718,29.5 L45.5718,29.5 M32.5718,48.5 L19.5718,63.5 M32.5718,48.5 L45.5718,63.5 " fill="none" style="stroke:#181818;stroke-width:0.5;"/><text fill="#000000" font-family="sans-serif" font-size="14" lengthAdjust="spacing" textLength="49.1436" x="5" y="395.7529">Cliente</text><ellipse cx="32.5718" cy="407.5547" fill="#E2E2F0" rx="8" ry="8" style="stroke:#181818;stroke-width:0.5;"/><path d="M32.5718,415.5547 L32.5718,442.5547 M19.5718,423.5547 L45.5718,423.5547 M32.5718,442.5547 L19.5718,457.5547 M32.5718,442.5547 L45.5718,457.5547 " fill="none" style="stroke:#181818;stroke-width:0.5;"/><text fill="#000000" font-family="sans-serif" font-size="14" lengthAdjust="spacing" textLength="85.2373" x="285.1465" y="77.9951">Servidor API</text><ellipse cx="330.7651" cy="49" fill="#E2E2F0" rx="12" ry="12" style="stroke:#181818;stroke-width:0.5;"/><line style="stroke:#181818;stroke-width:0.5;" x1="318.7651" x2="342.7651" y1="63" y2="63"/><text fill="#000000" font-family="sans-serif" font-size="14" lengthAdjust="spacing" textLength="85.2373" x="285.1465" y="395.7529">Servidor API</text><ellipse cx="330.7651" cy="415.0547" fill="#E2E2F0" rx="12" ry="12" style="stroke:#181818;stroke-width:0.5;"/><line style="stroke:#181818;stroke-width:0.5;" x1="318.7651" x2="342.7651" y1="429.0547" y2="429.0547"/><text fill="#000000" font-family="sans-serif" font-size="14" lengthAdjust="spacing" textLength="67.3545" x="484.625" y="77.9951">MongoDB</text><path d="M503.3022,29 C503.3022,19 521.3022,19 521.3022,19 C521.3022,19 539.3022,19 539.3022,29 L539.3022,55 C539.3022,65 521.3022,65 521.3022,65 C521.3022,65 503.3022,65 503.3022,55 L503.3022,29 " fill="#E2E2F0" style="stroke:#181818;stroke-width:1.5;"/><path d="M503.3022,29 C503.3022,39 521.3022,39 521.3022,39 C521.3022,39 539.3022,39 539.3022,29 " fill="none" style="stroke:#181818;stroke-width:1.5;"/><text fill="#000000" font-family="sans-serif" font-size="14" lengthAdjust="spacing" textLength="67.3545" x="484.625" y="395.7529">MongoDB</text><path d="M503.3022,409.0547 C503.3022,399.0547 521.3022,399.0547 521.3022,399.0547 C521.3022,399.0547 539.3022,399.0547 539.3022,409.0547 L539.3022,435.0547 C539.3022,445.0547 521.3022,445.0547 521.3022,445.0547 C521.3022,445.0547 503.3022,445.0547 503.3022,435.0547 L503.3022,409.0547 " fill="#E2E2F0" style="stroke:#181818;stroke-width:1.5;"/><path d="M503.3022,409.0547 C503.3022,419.0547 521.3022,419.0547 521.3022,419.0547 C521.3022,419.0547 539.3022,419.0547 539.3022,409.0547 " fill="none" style="stroke:#181818;stroke-width:1.5;"/><polygon fill="#181818" points="318.7651,108.4297,328.7651,112.4297,318.7651,116.4297,322.7651,112.4297" style="stroke:#181818;stroke-width:1;"/><line style="stroke:#181818;stroke-width:1;" x1="32.5718" x2="324.7651" y1="112.4297" y2="112.4297"/><text fill="#000000" font-family="sans-serif" font-size="13" lengthAdjust="spacing" textLength="274.1934" x="39.5718" y="107.3638">Enviar solicitud (GET, POST, PUT, DELETE)</text><polygon fill="#181818" points="509.3022,137.5625,519.3022,141.5625,509.3022,145.5625,513.3022,141.5625" style="stroke:#181818;stroke-width:1;"/><line style="stroke:#181818;stroke-width:1;" x1="330.7651" x2="515.3022" y1="141.5625" y2="141.5625"/><text fill="#000000" font-family="sans-serif" font-size="13" lengthAdjust="spacing" textLength="166.5371" x="337.7651" y="136.4966">Consultar/Modificar datos</text><polygon fill="#181818" points="341.7651,166.6953,331.7651,170.6953,341.7651,174.6953,337.7651,170.6953" style="stroke:#181818;stroke-width:1;"/><line style="stroke:#181818;stroke-width:1;stroke-dasharray:2.0,2.0;" x1="335.7651" x2="520.3022" y1="170.6953" y2="170.6953"/><text fill="#000000" font-family="sans-serif" font-size="13" lengthAdjust="spacing" textLength="135.7764" x="347.7651" y="165.6294">Respuesta con datos</text><polygon fill="#181818" points="43.5718,195.8281,33.5718,199.8281,43.5718,203.8281,39.5718,199.8281" style="stroke:#181818;stroke-width:1;"/><line style="stroke:#181818;stroke-width:1;stroke-dasharray:2.0,2.0;" x1="37.5718" x2="329.7651" y1="199.8281" y2="199.8281"/><text fill="#000000" font-family="sans-serif" font-size="13" lengthAdjust="spacing" textLength="175.2397" x="49.5718" y="194.7622">Respuesta de la API (JSON)</text><path d="M37,212.8281 L37,252.8281 L228,252.8281 L228,222.8281 L218,212.8281 L37,212.8281 " fill="#FEFFDD" style="stroke:#181818;stroke-width:0.5;"/><path d="M218,212.8281 L218,222.8281 L228,222.8281 L218,212.8281 " fill="#FEFFDD" style="stroke:#181818;stroke-width:0.5;"/><text fill="#000000" font-family="sans-serif" font-size="13" lengthAdjust="spacing" textLength="170.1108" x="43" y="229.895">El cliente (Postman) env&#237;a</text><text fill="#000000" font-family="sans-serif" font-size="13" lengthAdjust="spacing" textLength="163.3379" x="43" y="245.0278">solicitudes HTTP a la API.</text><path d="M335,263.0938 L335,318.0938 L579,318.0938 L579,273.0938 L569,263.0938 L335,263.0938 " fill="#FEFFDD" style="stroke:#181818;stroke-width:0.5;"/><path d="M569,263.0938 L569,273.0938 L579,273.0938 L569,263.0938 " fill="#FEFFDD" style="stroke:#181818;stroke-width:0.5;"/><text fill="#000000" font-family="sans-serif" font-size="13" lengthAdjust="spacing" textLength="213.2305" x="341" y="280.1606">El servidor recibe las solicitudes,</text><text fill="#000000" font-family="sans-serif" font-size="13" lengthAdjust="spacing" textLength="205.5688" x="341" y="295.2935">interact&#250;a con la base de datos</text><text fill="#000000" font-family="sans-serif" font-size="13" lengthAdjust="spacing" textLength="223.2725" x="341" y="310.4263">y devuelve la respuesta al cliente.</text><path d="M526,328.4922 L526,368.4922 L751,368.4922 L751,338.4922 L741,328.4922 L526,328.4922 " fill="#FEFFDD" style="stroke:#181818;stroke-width:0.5;"/><path d="M741,328.4922 L741,338.4922 L751,338.4922 L741,328.4922 " fill="#FEFFDD" style="stroke:#181818;stroke-width:0.5;"/><text fill="#000000" font-family="sans-serif" font-size="13" lengthAdjust="spacing" textLength="204.4834" x="532" y="345.5591">MongoDB almacena y recupera</text><text fill="#000000" font-family="sans-serif" font-size="13" lengthAdjust="spacing" textLength="152.4072" x="532" y="360.6919">datos en formato JSON.</text><!--SRC=[TP5DJiCm48NtFiLJLwtKmfu54aqYVaHfXCC1fevJBALsPJkHUYWkmBONOvo60fNOMBQVvvltngIYyyXQestKe81CyCx40oPI-zxKhDwLZvCaIL5Jf0q5ZSdAsQtBbyDzlXGYm-8M4ZSeR6_88xZMA1Ex6jFxefgZNCkqll6I5yz5LSo4J2NvacioPqFNHlBNArURnYW6S2iN1CkB4VogmxxJ8HAKiwCi1pNxezOQBINFc3x9zSjC2EiucZVRzmZNS42WQA76oDFIXRWZEuEs_V63M3rxrm4FLLM2Hk8LpwP6mbr2vGaQlaVcjJARP2JyfitvbU6cdbGyVfw2C7cOADi-PG8EVEWxtVP34dzEHcVN_nlXlm36p-627IbjYObigDjpOrQ7DfmMZVCxtYEDwOVu1G00]--></g></svg>